<svg width="152" height="81" viewBox="0 0 152 81" fill="none" xmlns="http://www.w3.org/2000/svg">
<path d="M10.7443 53.3636V65H8.61932L3.55682 57.6761H3.47159V65H1.01136V53.3636H3.17045L8.19318 60.6818H8.29545V53.3636H10.7443ZM14.7827 65H12.1463L16.1634 53.3636H19.3338L23.3452 65H20.7088L17.794 56.0227H17.7031L14.7827 65ZM14.6179 60.4261H20.8452V62.3466H14.6179V60.4261ZM22.8807 55.392V53.3636H32.4375V55.392H28.875V65H26.4432V55.392H22.8807ZM34.0114 65V53.3636H41.8523V55.392H36.4716V58.1648H41.4489V60.1932H36.4716V62.9716H41.875V65H34.0114ZM50.1207 56.7102C50.0753 56.2519 49.8802 55.8958 49.5355 55.642C49.1908 55.3883 48.723 55.2614 48.1321 55.2614C47.7306 55.2614 47.3916 55.3182 47.1151 55.4318C46.8385 55.5417 46.6264 55.6951 46.4787 55.892C46.3348 56.089 46.2628 56.3125 46.2628 56.5625C46.2552 56.7708 46.2988 56.9527 46.3935 57.108C46.492 57.2633 46.6264 57.3977 46.7969 57.5114C46.9673 57.6212 47.1643 57.7178 47.3878 57.8011C47.6113 57.8807 47.8499 57.9489 48.1037 58.0057L49.1491 58.2557C49.6567 58.3693 50.1226 58.5208 50.5469 58.7102C50.9711 58.8996 51.3385 59.1326 51.6491 59.4091C51.9598 59.6856 52.2003 60.0114 52.3707 60.3864C52.545 60.7614 52.634 61.1913 52.6378 61.6761C52.634 62.3883 52.4522 63.0057 52.0923 63.5284C51.7363 64.0473 51.2211 64.4508 50.5469 64.7386C49.8764 65.0227 49.0677 65.1648 48.1207 65.1648C47.1813 65.1648 46.3632 65.0208 45.6662 64.733C44.973 64.4451 44.4313 64.0189 44.0412 63.4545C43.6548 62.8864 43.4522 62.1837 43.4332 61.3466H45.8139C45.8404 61.7367 45.9522 62.0625 46.1491 62.3239C46.3499 62.5814 46.617 62.7765 46.9503 62.9091C47.2874 63.0379 47.6681 63.1023 48.0923 63.1023C48.509 63.1023 48.8707 63.0417 49.1776 62.9205C49.4882 62.7992 49.7287 62.6307 49.8991 62.4148C50.0696 62.1989 50.1548 61.9508 50.1548 61.6705C50.1548 61.4091 50.0772 61.1894 49.9219 61.0114C49.7704 60.8333 49.5469 60.6818 49.2514 60.5568C48.9598 60.4318 48.6018 60.3182 48.1776 60.2159L46.9105 59.8977C45.9295 59.6591 45.1548 59.286 44.5866 58.7784C44.0185 58.2708 43.7363 57.5871 43.7401 56.7273C43.7363 56.0227 43.9238 55.4072 44.3026 54.8807C44.6851 54.3542 45.2098 53.9432 45.8764 53.6477C46.5431 53.3523 47.3007 53.2045 48.1491 53.2045C49.0128 53.2045 49.7666 53.3523 50.4105 53.6477C51.0582 53.9432 51.562 54.3542 51.9219 54.8807C52.2817 55.4072 52.4673 56.017 52.4787 56.7102H50.1207ZM57.9957 65V53.3636H62.5866C63.4692 53.3636 64.2211 53.5322 64.8423 53.8693C65.4635 54.2027 65.937 54.6667 66.2628 55.2614C66.5923 55.8523 66.7571 56.5341 66.7571 57.3068C66.7571 58.0795 66.5904 58.7614 66.2571 59.3523C65.9238 59.9432 65.4408 60.4034 64.8082 60.733C64.1795 61.0625 63.4181 61.2273 62.5241 61.2273H59.598V59.2557H62.1264C62.5999 59.2557 62.9901 59.1742 63.2969 59.0114C63.6075 58.8447 63.8385 58.6155 63.9901 58.3239C64.1454 58.0284 64.223 57.6894 64.223 57.3068C64.223 56.9205 64.1454 56.5833 63.9901 56.2955C63.8385 56.0038 63.6075 55.7784 63.2969 55.6193C62.9863 55.4564 62.5923 55.375 62.1151 55.375H60.456V65H57.9957ZM68.3551 65V53.3636H70.8153V58.1648H75.8097V53.3636H78.2642V65H75.8097V60.1932H70.8153V65H68.3551ZM82.2983 65H79.6619L83.679 53.3636H86.8494L90.8608 65H88.2244L85.3097 56.0227H85.2188L82.2983 65ZM82.1335 60.4261H88.3608V62.3466H82.1335V60.4261ZM92.2614 65V53.3636H96.8523C97.7311 53.3636 98.4811 53.5208 99.1023 53.8352C99.7273 54.1458 100.203 54.5871 100.528 55.1591C100.858 55.7273 101.023 56.3958 101.023 57.1648C101.023 57.9375 100.856 58.6023 100.523 59.1591C100.189 59.7121 99.7064 60.1364 99.0739 60.4318C98.4451 60.7273 97.6837 60.875 96.7898 60.875H93.7159V58.8977H96.392C96.8617 58.8977 97.2519 58.8333 97.5625 58.7045C97.8731 58.5758 98.1042 58.3826 98.2557 58.125C98.411 57.8674 98.4886 57.5473 98.4886 57.1648C98.4886 56.7784 98.411 56.4527 98.2557 56.1875C98.1042 55.9223 97.8712 55.7216 97.5568 55.5852C97.2462 55.4451 96.8542 55.375 96.3807 55.375H94.7216V65H92.2614ZM98.5455 59.7045L101.438 65H98.7216L95.892 59.7045H98.5455ZM102.761 53.3636H105.795L109 61.1818H109.136L112.341 53.3636H115.375V65H112.989V57.4261H112.892L109.881 64.9432H108.256L105.244 57.3977H105.148V65H102.761V53.3636ZM119.408 65H116.771L120.788 53.3636H123.959L127.97 65H125.334L122.419 56.0227H122.328L119.408 65ZM119.243 60.4261H125.47V62.3466H119.243V60.4261ZM139.091 57.4375H136.602C136.557 57.1155 136.464 56.8295 136.324 56.5795C136.184 56.3258 136.004 56.1098 135.784 55.9318C135.564 55.7538 135.311 55.6174 135.023 55.5227C134.739 55.428 134.43 55.3807 134.097 55.3807C133.494 55.3807 132.97 55.5303 132.523 55.8295C132.076 56.125 131.729 56.5568 131.483 57.125C131.237 57.6894 131.114 58.375 131.114 59.1818C131.114 60.0114 131.237 60.7083 131.483 61.2727C131.733 61.8371 132.081 62.2633 132.528 62.5511C132.975 62.839 133.492 62.983 134.08 62.983C134.409 62.983 134.714 62.9394 134.994 62.8523C135.278 62.7652 135.53 62.6383 135.75 62.4716C135.97 62.3011 136.152 62.0947 136.295 61.8523C136.443 61.6098 136.545 61.3333 136.602 61.0227L139.091 61.0341C139.027 61.5682 138.866 62.0833 138.608 62.5795C138.354 63.072 138.011 63.5133 137.58 63.9034C137.152 64.2898 136.64 64.5966 136.045 64.8239C135.455 65.0473 134.786 65.1591 134.04 65.1591C133.002 65.1591 132.074 64.9242 131.256 64.4545C130.441 63.9848 129.797 63.3049 129.324 62.4148C128.854 61.5246 128.619 60.447 128.619 59.1818C128.619 57.9129 128.858 56.8333 129.335 55.9432C129.813 55.053 130.46 54.375 131.278 53.9091C132.097 53.4394 133.017 53.2045 134.04 53.2045C134.714 53.2045 135.339 53.2992 135.915 53.4886C136.494 53.678 137.008 53.9545 137.455 54.3182C137.902 54.678 138.265 55.1193 138.545 55.642C138.83 56.1648 139.011 56.7633 139.091 57.4375ZM140.173 53.3636H142.929L145.582 58.375H145.696L148.349 53.3636H151.105L146.861 60.8864V65H144.418V60.8864L140.173 53.3636Z" fill="white"/>
<path d="M27.4304 72.6364H28.3977L29.6932 75.7983H29.7443L31.0398 72.6364H32.0071V77H31.2486V74.0021H31.2081L30.0021 76.9872H29.4354L28.2294 73.9957H28.1889V77H27.4304V72.6364ZM36.767 74.8182C36.767 75.2884 36.679 75.6911 36.5028 76.0263C36.3281 76.3601 36.0895 76.6158 35.7869 76.7933C35.4858 76.9709 35.1442 77.0597 34.7621 77.0597C34.38 77.0597 34.0376 76.9709 33.7351 76.7933C33.4339 76.6143 33.1953 76.358 33.0192 76.0241C32.8445 75.6889 32.7571 75.2869 32.7571 74.8182C32.7571 74.348 32.8445 73.946 33.0192 73.6122C33.1953 73.277 33.4339 73.0206 33.7351 72.843C34.0376 72.6655 34.38 72.5767 34.7621 72.5767C35.1442 72.5767 35.4858 72.6655 35.7869 72.843C36.0895 73.0206 36.3281 73.277 36.5028 73.6122C36.679 73.946 36.767 74.348 36.767 74.8182ZM35.9723 74.8182C35.9723 74.4872 35.9205 74.2081 35.8168 73.9808C35.7145 73.7521 35.5724 73.5795 35.3906 73.4631C35.2088 73.3452 34.9993 73.2862 34.7621 73.2862C34.5249 73.2862 34.3153 73.3452 34.1335 73.4631C33.9517 73.5795 33.8089 73.7521 33.7053 73.9808C33.603 74.2081 33.5518 74.4872 33.5518 74.8182C33.5518 75.1491 33.603 75.429 33.7053 75.6577C33.8089 75.8849 33.9517 76.0575 34.1335 76.1754C34.3153 76.2919 34.5249 76.3501 34.7621 76.3501C34.9993 76.3501 35.2088 76.2919 35.3906 76.1754C35.5724 76.0575 35.7145 75.8849 35.8168 75.6577C35.9205 75.429 35.9723 75.1491 35.9723 74.8182ZM37.5144 77V72.6364H39.1507C39.486 72.6364 39.7672 72.6946 39.9945 72.8111C40.2232 72.9276 40.3958 73.0909 40.5123 73.3011C40.6301 73.5099 40.6891 73.7536 40.6891 74.032C40.6891 74.3118 40.6294 74.5547 40.5101 74.7607C40.3922 74.9652 40.2182 75.1236 39.9881 75.2358C39.758 75.3466 39.4753 75.402 39.1401 75.402H37.9746V74.7457H39.0336C39.2296 74.7457 39.3901 74.7187 39.5151 74.6648C39.6401 74.6094 39.7324 74.5291 39.7921 74.424C39.8532 74.3175 39.8837 74.1868 39.8837 74.032C39.8837 73.8771 39.8532 73.745 39.7921 73.6357C39.731 73.5249 39.638 73.4411 39.513 73.3842C39.388 73.326 39.2267 73.2969 39.0293 73.2969H38.3049V77H37.5144ZM39.7686 75.0227L40.8489 77H39.9668L38.9057 75.0227H39.7686ZM41.4167 77V72.6364H44.2548V73.299H42.2072V74.4837H44.1078V75.1463H42.2072V76.3374H44.2718V77H41.4167ZM46.3578 73.299V72.6364H49.8393V73.299H48.4906V77H47.7065V73.299H46.3578ZM50.5105 77V72.6364H51.301V74.4837H53.323V72.6364H54.1156V77H53.323V75.1463H51.301V77H50.5105ZM54.9753 77V72.6364H57.8134V73.299H55.7658V74.4837H57.6664V75.1463H55.7658V76.3374H57.8304V77H54.9753ZM62.2058 72.6364V77H61.5027L59.4466 74.0277H59.4103V77H58.6199V72.6364H59.3272L61.3812 75.6108H61.4196V72.6364H62.2058ZM64.5554 72.6364H65.5227L66.8182 75.7983H66.8693L68.1648 72.6364H69.1321V77H68.3736V74.0021H68.3331L67.1271 76.9872H66.5604L65.3544 73.9957H65.3139V77H64.5554V72.6364ZM69.9929 77V72.6364H72.831V73.299H70.7834V74.4837H72.6839V75.1463H70.7834V76.3374H72.848V77H69.9929ZM75.1161 77H73.6374V72.6364H75.146C75.5792 72.6364 75.9513 72.7237 76.2624 72.8984C76.5749 73.0717 76.815 73.321 76.9826 73.6463C77.1502 73.9716 77.234 74.3608 77.234 74.8139C77.234 75.2685 77.1495 75.6591 76.9805 75.9858C76.8129 76.3125 76.5707 76.5632 76.2539 76.7379C75.9386 76.9126 75.5593 77 75.1161 77ZM74.4279 76.3161H75.0778C75.3817 76.3161 75.6353 76.2607 75.8384 76.1499C76.0415 76.0376 76.1942 75.8707 76.2965 75.6491C76.3988 75.4261 76.4499 75.1477 76.4499 74.8139C76.4499 74.4801 76.3988 74.2031 76.2965 73.983C76.1942 73.7614 76.043 73.5959 75.8427 73.4865C75.6438 73.3757 75.3967 73.3203 75.1012 73.3203H74.4279V76.3161ZM78.7756 72.6364V77H77.9851V72.6364H78.7756ZM83.3667 74.1087H82.5698C82.5471 73.978 82.5051 73.8622 82.4441 73.7614C82.383 73.6591 82.307 73.5724 82.2161 73.5014C82.1252 73.4304 82.0215 73.3771 81.905 73.3416C81.79 73.3047 81.6657 73.2862 81.5321 73.2862C81.2949 73.2862 81.0847 73.3459 80.9015 73.4652C80.7182 73.5831 80.5748 73.7564 80.4711 73.9851C80.3674 74.2124 80.3155 74.4901 80.3155 74.8182C80.3155 75.152 80.3674 75.4332 80.4711 75.6619C80.5762 75.8892 80.7196 76.0611 80.9015 76.1776C81.0847 76.2926 81.2942 76.3501 81.53 76.3501C81.6607 76.3501 81.7828 76.3331 81.8965 76.299C82.0115 76.2635 82.1145 76.2116 82.2054 76.1435C82.2978 76.0753 82.3752 75.9915 82.4377 75.892C82.5016 75.7926 82.5456 75.679 82.5698 75.5511L83.3667 75.5554C83.3368 75.7628 83.2722 75.9574 83.1728 76.1392C83.0748 76.321 82.9462 76.4815 82.7871 76.6207C82.628 76.7585 82.4419 76.8665 82.2289 76.9446C82.0158 77.0213 81.7793 77.0597 81.5194 77.0597C81.1358 77.0597 80.7935 76.9709 80.4924 76.7933C80.1912 76.6158 79.954 76.3594 79.7807 76.0241C79.6074 75.6889 79.5208 75.2869 79.5208 74.8182C79.5208 74.348 79.6081 73.946 79.7828 73.6122C79.9576 73.277 80.1955 73.0206 80.4966 72.843C80.7978 72.6655 81.1387 72.5767 81.5194 72.5767C81.7623 72.5767 81.9881 72.6108 82.1969 72.679C82.4057 72.7472 82.5918 72.8473 82.7551 72.9794C82.9185 73.1101 83.0527 73.2706 83.1578 73.4609C83.2644 73.6499 83.334 73.8658 83.3667 74.1087ZM84.881 72.6364V77H84.0906V72.6364H84.881ZM89.323 72.6364V77H88.6199L86.5637 74.0277H86.5275V77H85.737V72.6364H86.4444L88.4984 75.6108H88.5368V72.6364H89.323ZM90.1843 77V72.6364H93.0224V73.299H90.9748V74.4837H92.8754V75.1463H90.9748V76.3374H93.0394V77H90.1843ZM94.7003 76.4034L94.6726 76.6378C94.6527 76.8168 94.6172 76.9986 94.5661 77.1832C94.5163 77.3693 94.4638 77.5405 94.4084 77.6967C94.353 77.853 94.3082 77.9759 94.2741 78.0653H93.7543C93.7741 77.9787 93.8011 77.8608 93.8352 77.7116C93.8707 77.5625 93.9048 77.3949 93.9375 77.2088C93.9702 77.0227 93.9922 76.8338 94.0036 76.642L94.0185 76.4034H94.7003ZM97.8702 77L96.6387 72.6364H97.4888L98.275 75.843H98.3155L99.155 72.6364H99.9284L100.77 75.8452H100.808L101.595 72.6364H102.445L101.213 77H100.433L99.5598 73.9382H99.5257L98.65 77H97.8702ZM102.993 77V72.6364H105.831V73.299H103.783V74.4837H105.684V75.1463H103.783V76.3374H105.848V77H102.993ZM111.861 74.1087H111.064C111.041 73.978 110.999 73.8622 110.938 73.7614C110.877 73.6591 110.801 73.5724 110.71 73.5014C110.619 73.4304 110.516 73.3771 110.399 73.3416C110.284 73.3047 110.16 73.2862 110.026 73.2862C109.789 73.2862 109.579 73.3459 109.396 73.4652C109.212 73.5831 109.069 73.7564 108.965 73.9851C108.862 74.2124 108.81 74.4901 108.81 74.8182C108.81 75.152 108.862 75.4332 108.965 75.6619C109.07 75.8892 109.214 76.0611 109.396 76.1776C109.579 76.2926 109.788 76.3501 110.024 76.3501C110.155 76.3501 110.277 76.3331 110.391 76.299C110.506 76.2635 110.609 76.2116 110.7 76.1435C110.792 76.0753 110.869 75.9915 110.932 75.892C110.996 75.7926 111.04 75.679 111.064 75.5511L111.861 75.5554C111.831 75.7628 111.766 75.9574 111.667 76.1392C111.569 76.321 111.44 76.4815 111.281 76.6207C111.122 76.7585 110.936 76.8665 110.723 76.9446C110.51 77.0213 110.273 77.0597 110.013 77.0597C109.63 77.0597 109.288 76.9709 108.987 76.7933C108.685 76.6158 108.448 76.3594 108.275 76.0241C108.102 75.6889 108.015 75.2869 108.015 74.8182C108.015 74.348 108.102 73.946 108.277 73.6122C108.452 73.277 108.69 73.0206 108.991 72.843C109.292 72.6655 109.633 72.5767 110.013 72.5767C110.256 72.5767 110.482 72.6108 110.691 72.679C110.9 72.7472 111.086 72.8473 111.249 72.9794C111.413 73.1101 111.547 73.2706 111.652 73.4609C111.759 73.6499 111.828 73.8658 111.861 74.1087ZM113.092 77H112.249L113.785 72.6364H114.761L116.299 77H115.455L114.29 73.5312H114.256L113.092 77ZM113.12 75.2891H115.421V75.924H113.12V75.2891ZM116.874 77V72.6364H118.51C118.845 72.6364 119.127 72.6946 119.354 72.8111C119.583 72.9276 119.755 73.0909 119.872 73.3011C119.99 73.5099 120.048 73.7536 120.048 74.032C120.048 74.3118 119.989 74.5547 119.869 74.7607C119.752 74.9652 119.578 75.1236 119.347 75.2358C119.117 75.3466 118.835 75.402 118.499 75.402H117.334V74.7457H118.393C118.589 74.7457 118.749 74.7187 118.874 74.6648C118.999 74.6094 119.092 74.5291 119.151 74.424C119.213 74.3175 119.243 74.1868 119.243 74.032C119.243 73.8771 119.213 73.745 119.151 73.6357C119.09 73.5249 118.997 73.4411 118.872 73.3842C118.747 73.326 118.586 73.2969 118.389 73.2969H117.664V77H116.874ZM119.128 75.0227L120.208 77H119.326L118.265 75.0227H119.128ZM120.776 77V72.6364H123.614V73.299H121.567V74.4837H123.467V75.1463H121.567V76.3374H123.631V77H120.776Z" fill="#E81E2F"/>
<path d="M75.3033 36.649C75.4811 36.3248 75.6171 36.0005 75.6171 35.9168C75.6171 35.8332 75.6799 35.7704 75.7635 35.7704C75.8577 35.7704 75.9309 35.6449 75.9518 35.488C75.9832 35.2265 76.025 35.1952 76.4329 35.1638C76.6735 35.1429 76.8722 35.1638 76.8722 35.1952C76.8722 35.4253 75.8054 36.6594 75.2824 37.036L75 37.2452L75.3033 36.649Z" fill="white"/>
<path d="M56 24.349C56 8.49287 56 8.17909 56.2092 7.21685C56.5543 5.61659 57.0355 4.83215 58.6566 3.15868C59.5875 2.19644 60.4033 1.60027 61.6061 1.01455C62.652 0.502051 63.0286 0.387 64.587 0.156898C65.7061 -0.0104489 65.9571 1.03712e-05 68.1327 0.324245C68.9903 0.460214 71.1763 1.1819 71.7724 1.52705C72.4105 1.90358 73.5923 3.04363 74.3559 4.0268C74.952 4.80078 77.3054 8.15817 85.0033 19.1926C86.6036 21.4936 88.0365 23.4913 88.1829 23.6378L88.4444 23.8992L88.4025 23.6168C88.3398 23.2717 88.4339 23.2299 88.5804 23.5332C88.6431 23.6482 89.4276 24.8092 90.3375 26.1061C92.1574 28.6791 92.6594 29.589 93.0883 31.0115C93.3602 31.8901 93.3811 32.0888 93.3811 33.8878C93.3811 36.2515 93.3288 36.4398 92.4503 37.151C90.3061 38.8663 88.9674 39.5671 86.9801 39.9959C85.5995 40.2888 85.1811 40.3306 85.1811 40.1633C85.1811 40.1005 85.5367 39.6717 85.976 39.201C87.1579 37.9355 87.1997 37.81 87.2102 35.3521C87.2207 33.438 87.2102 33.2811 86.9801 32.7896C86.75 32.2771 83.1939 26.9219 81.2798 24.2026C80.7464 23.4495 79.9411 22.299 79.4809 21.6401C78.686 20.5105 77.389 18.5441 73.7806 13.0008C72.8916 11.6306 71.5946 9.63292 70.8834 8.55562L69.5969 6.59975L68.9066 6.26506C68.3 5.96174 68.0699 5.90945 67.2541 5.87807C66.1349 5.82578 65.1832 5.96174 64.3464 6.26506C63.1227 6.73572 62.788 7.13317 62.5997 8.36736C62.537 8.76481 62.4742 14.7056 62.4324 22.7487L62.3696 36.4503L62.014 37.1824C61.0727 39.1278 59.2214 40.3202 56.9727 40.4457L56 40.5084V24.349Z" fill="white"/>
<path d="M78.6964 40.8536C78.6964 40.7699 78.5396 40.6862 78.299 40.6548C77.8074 40.5712 76.9602 40.0378 76.2804 39.3788C75.9875 39.0964 75.1822 38.061 74.4814 37.0883C73.7911 36.1051 72.7452 34.6408 72.1595 33.8355C71.5737 33.0301 70.6324 31.7122 70.0676 30.9069C69.4924 30.1015 68.3941 28.5431 67.5992 27.4449C66.6684 26.127 66.0513 25.1648 65.8212 24.6209C65.4865 23.826 65.476 23.7528 65.4656 22.3827C65.4656 21.1589 65.4969 20.887 65.7061 20.3431C66.2186 19.0148 67.3273 17.8329 68.5301 17.3622C69.2727 17.0694 70.5592 16.9753 71.3646 17.1531C72.0967 17.3204 73.174 17.8538 73.7492 18.3454C73.9794 18.5546 75.224 20.1967 76.5105 21.9852C77.7865 23.7842 79.1776 25.7296 79.5855 26.3048C83.5809 31.8901 84.3235 32.9883 84.5431 33.6786C84.7837 34.4526 84.8778 35.5821 84.7628 36.4398C84.4908 38.5316 82.8487 40.4666 81.123 40.749C80.8824 40.7804 80.7151 40.8536 80.7464 40.9059C80.7778 40.9582 80.3281 41 79.7528 41C78.9265 41 78.6964 40.9686 78.6964 40.8536ZM75.6319 32.3607C77.6401 31.8378 79.0939 30.0283 79.4809 27.5599C79.5436 27.2043 79.4809 27.2776 79.0416 28.1143C78.414 29.338 77.797 30.1015 76.9184 30.7605C75.7679 31.6286 73.8538 32.2143 72.1804 32.2143C71.2077 32.2143 71.375 32.3816 72.4732 32.5176C73.4878 32.6431 74.8161 32.5699 75.6319 32.3607Z" fill="white"/>
<path d="M94.6988 32.8C94.6988 32.664 94.657 32.5281 94.5942 32.5071C94.5314 32.4862 94.4791 26.7023 94.4687 16.2431C94.4373 0.0209122 94.4373 0.0104541 94.6465 0.18826C94.7615 0.282393 94.9184 0.428821 94.9916 0.512495C95.0858 0.638005 95.1172 4.00586 95.1172 16.6196C95.1172 25.3949 95.0858 32.6849 95.0544 32.8209C94.9707 33.1347 94.6988 33.1242 94.6988 32.8Z" fill="white"/>
<path d="M88.4024 24.1084C88.1933 23.826 88.1619 23.7005 88.3292 23.7946C88.4024 23.8469 88.4234 23.7214 88.392 23.439C88.3606 23.0834 88.3815 23.0102 88.5384 23.0102C88.6744 23.0102 88.7371 23.1252 88.7894 23.4704C88.8627 23.9201 88.7894 24.3699 88.6535 24.3699C88.6116 24.3699 88.4966 24.2548 88.4024 24.1084Z" fill="white"/>
<path d="M88.4233 21.3367C88.4233 20.7824 88.4443 20.7092 88.6325 20.7092C88.8208 20.7092 88.8417 20.7824 88.8417 21.3367C88.8417 21.8911 88.8208 21.9643 88.6325 21.9643C88.4443 21.9643 88.4233 21.8911 88.4233 21.3367Z" fill="white"/>
<path d="M88.4233 18.2513C88.4233 16.0758 88.4338 16.0025 88.6325 16.0025C88.8312 16.0025 88.8417 16.0758 88.8417 18.2513C88.8417 20.4268 88.8312 20.5 88.6325 20.5C88.4338 20.5 88.4233 20.4268 88.4233 18.2513Z" fill="white"/>
<path d="M88.5281 5.52245C88.5281 4.62296 88.6013 4.28827 88.8 4.28827C88.9151 4.28827 88.9464 4.50791 88.9464 5.28189C88.9464 6.2023 88.936 6.27551 88.7373 6.27551C88.549 6.27551 88.5281 6.2023 88.5281 5.52245Z" fill="white"/>
<path d="M92.5024 0.397449C92.5024 0.219643 92.9836 0 93.3601 0C93.7262 0 93.7785 0.366071 93.4228 0.460204C93.0045 0.564796 92.5024 0.533418 92.5024 0.397449Z" fill="white"/>
<path d="M92.5965 36.6804C93.4751 35.0173 93.245 31.8796 92.084 29.5681C91.8644 29.1288 90.9649 27.7378 90.0863 26.4827C88.4547 24.1607 88.4338 24.1189 88.4128 23.1148C88.4128 22.9161 88.4338 19.339 88.4651 15.1658C88.5174 7.05995 88.5802 4.77985 88.758 3.8699C88.9253 3.00179 89.3437 2.20689 90.0131 1.5375C90.9335 0.606636 92.0631 0.16735 93.883 0.0313805C94.3955 -0.0104562 94.4896 0.0104622 94.6151 0.198727C94.6884 0.324238 94.8034 0.41837 94.8766 0.41837C94.9498 0.41837 95.0126 0.470666 95.0126 0.522962C95.0126 0.585717 94.9708 0.627554 94.908 0.627554C94.8348 0.627554 94.8034 5.96174 94.8034 16.4209C94.8034 26.8801 94.8348 32.2143 94.908 32.2143C95.0544 32.2143 95.0335 33.0092 94.8662 33.6263C94.6465 34.463 94.1026 35.4566 93.8621 35.4566C93.6215 35.4566 93.496 35.624 93.6738 35.6972C93.883 35.7704 93.6111 36.1469 93.3914 36.1051C93.1509 36.0633 92.8266 36.3666 92.8789 36.5862C92.8998 36.6908 92.7848 36.8686 92.607 37.0046L92.2932 37.2452L92.5965 36.6804Z" fill="white"/>
</svg>
