<svg width="43" height="32" viewBox="0 0 43 32" fill="none" xmlns="http://www.w3.org/2000/svg">
<path d="M33.7919 31.9999C30.8052 31.9999 28.3306 31.0186 26.3679 29.0559C24.4906 27.0933 23.5519 24.2773 23.5519 20.6079C23.5519 16.6826 24.6612 12.7999 26.8799 8.95995C29.1839 5.11994 32.3839 2.13328 36.4799 -6.10352e-05L39.4239 4.47994C34.9866 7.55194 32.3412 11.4346 31.4879 16.1279C32.2559 15.7866 33.1519 15.6159 34.1759 15.6159C36.5652 15.6159 38.5279 16.3839 40.0639 17.9199C41.5999 19.4559 42.3679 21.4186 42.3679 23.8079C42.3679 26.1973 41.5572 28.1599 39.9359 29.6959C38.3146 31.2319 36.2666 31.9999 33.7919 31.9999ZM10.2399 31.9999C7.25322 31.9999 4.77855 31.0186 2.81588 29.0559C0.93855 27.0933 -0.000116825 24.2773 -0.000116825 20.6079C-0.000116825 16.6826 1.10922 12.7999 3.32788 8.95995C5.63188 5.11994 8.83188 2.13328 12.9279 -6.10352e-05L15.8719 4.47994C11.4345 7.55194 8.78922 11.4346 7.93588 16.1279C8.70388 15.7866 9.59988 15.6159 10.6239 15.6159C13.0132 15.6159 14.9759 16.3839 16.5119 17.9199C18.0479 19.4559 18.8159 21.4186 18.8159 23.8079C18.8159 26.1973 18.0052 28.1599 16.3839 29.6959C14.7626 31.2319 12.7146 31.9999 10.2399 31.9999Z" fill="#8ED6FF"/>
</svg>
