<svg width="125" height="125" viewBox="0 0 125 125" fill="none" xmlns="http://www.w3.org/2000/svg">
<g filter="url(#filter0_d_31_89)">
<rect x="30.7" y="26.7" width="63" height="63" rx="13" fill="url(#paint0_linear_31_89)" shape-rendering="crispEdges"/>
<path d="M78.1626 56.3732L74.6943 50.6204C74.4405 50.2026 74.0837 49.857 73.6581 49.6165C73.2326 49.376 72.7524 49.2487 72.2636 49.2467H69.5406V48.8424C69.5407 48.2585 69.4254 47.6804 69.2014 47.1412C68.9773 46.602 68.649 46.1124 68.2352 45.7005C67.3987 44.867 66.2661 44.3988 65.0852 44.3983H48.8757C47.9934 44.3925 47.1295 44.65 46.3945 45.138C45.6595 45.626 45.0869 46.3222 44.7498 47.1375C44.5268 47.678 44.4142 48.2577 44.4186 48.8424V63.3876C44.4195 64.0707 44.6679 64.7304 45.1178 65.2444C45.5676 65.7585 46.1885 66.0922 46.8655 66.1836C46.8579 66.3298 46.8579 66.4754 46.8655 66.6204C46.8597 67.3091 46.9931 67.9918 47.2576 68.6277C47.5221 69.2635 47.9123 69.8394 48.4048 70.3208C48.8881 70.8238 49.4665 71.2257 50.1066 71.5031C50.7466 71.7804 51.4354 71.9277 52.1328 71.9364C53.5249 71.9238 54.8567 71.3666 55.843 70.3842C56.8284 69.4033 57.3884 68.0741 57.4018 66.6837C57.4101 66.5496 57.4101 66.4151 57.4018 66.281H66.3468C66.3385 66.4151 66.3385 66.5496 66.3468 66.6837C66.3408 67.3727 66.4741 68.0557 66.7386 68.6919C67.0031 69.328 67.3934 69.9042 67.8861 70.3858C68.3697 70.8892 68.9487 71.2913 69.5893 71.5686C70.2299 71.846 70.9193 71.9931 71.6174 72.0014C73.0094 71.9888 74.3412 71.4316 75.3276 70.4491C76.3124 69.468 76.8717 68.1388 76.8847 66.7487C76.8931 66.614 76.8931 66.479 76.8847 66.3444H78.1122C78.4325 66.3398 78.7384 66.2109 78.9654 65.9848C79.1923 65.7588 79.3225 65.4533 79.3284 65.1331V60.4633C79.3284 59.0182 78.9241 57.6023 78.1626 56.3732ZM54.9532 66.6188C54.9537 66.9899 54.8793 67.3574 54.7345 67.6992C54.5897 68.0409 54.3775 68.35 54.1105 68.6078C53.5703 69.1211 52.8536 69.4073 52.1085 69.4073C51.3633 69.4073 50.6466 69.1211 50.1064 68.6078C49.8431 68.3451 49.6346 68.0327 49.493 67.6887C49.3515 67.3448 49.2796 66.9761 49.2816 66.6042C49.274 66.2201 49.3516 65.8391 49.5089 65.4887C49.7232 64.9805 50.0918 64.5518 50.5611 64.2595C51.041 63.9423 51.6064 63.7792 52.1815 63.7919C52.7304 63.7919 53.2662 63.9543 53.7208 64.2595C54.1868 64.5567 54.5538 64.9837 54.7762 65.4887C54.9354 65.8378 55.0198 66.2193 55.0182 66.6042L54.9532 66.6188ZM60.2205 58.5392H52.1182C51.6893 58.5388 51.2779 58.3686 50.974 58.0659C50.6701 57.7632 50.4983 57.3525 50.4961 56.9236C50.4957 56.7108 50.5373 56.5001 50.6187 56.3035C50.7 56.1068 50.8194 55.9282 50.97 55.7779C51.1206 55.6276 51.2994 55.5086 51.4962 55.4277C51.693 55.3467 51.9038 55.3055 52.1166 55.3064H60.2205C60.6495 55.3072 61.0607 55.4778 61.3643 55.7808C61.6679 56.0838 61.8393 56.4947 61.841 56.9236C61.8412 57.1362 61.7994 57.3468 61.718 57.5432C61.6366 57.7397 61.5171 57.9181 61.3666 58.0682C61.216 58.2183 61.0372 58.3372 60.8406 58.4181C60.6439 58.4989 60.4332 58.54 60.2205 58.5392ZM60.2205 52.9796H52.1182C51.6893 52.9792 51.2779 52.809 50.974 52.5063C50.6701 52.2036 50.4983 51.793 50.4961 51.364C50.4959 51.1514 50.5377 50.9408 50.6191 50.7444C50.7006 50.5479 50.82 50.3695 50.9706 50.2194C51.1212 50.0693 51.2999 49.9504 51.4966 49.8696C51.6933 49.7887 51.904 49.7476 52.1166 49.7484H60.2205C60.6492 49.7493 61.0601 49.9196 61.3637 50.2223C61.6673 50.5249 61.8389 50.9353 61.841 51.364C61.8412 51.5766 61.7994 51.7872 61.718 51.9837C61.6366 52.1801 61.5171 52.3585 61.3666 52.5086C61.216 52.6587 61.0372 52.7776 60.8406 52.8585C60.6439 52.9393 60.4332 52.9805 60.2205 52.9796ZM74.402 66.6188C74.4023 66.9901 74.3277 67.3576 74.1826 67.6994C74.0375 68.0411 73.825 68.3501 73.5577 68.6078C73.0176 69.1206 72.3013 69.4065 71.5565 69.4065C70.8117 69.4065 70.0954 69.1206 69.5553 68.6078C69.2917 68.3452 69.0829 68.0329 68.941 67.6889C68.7991 67.345 68.727 66.9762 68.7288 66.6042C68.7219 66.0154 68.9103 65.441 69.2646 64.9707C69.664 64.4398 70.2372 64.0614 70.8851 63.9039H71.291C71.3652 63.8863 71.4425 63.8863 71.5167 63.9039H71.8414C72.3334 63.9608 72.8027 64.1442 73.2021 64.4381C73.6032 64.732 73.9165 65.1282 74.1098 65.5861C74.2705 65.9352 74.3533 66.3168 74.3533 66.7L74.402 66.6188Z" fill="white"/>
<path d="M71.5525 63.7757C71.4778 63.7577 71.3999 63.7577 71.3252 63.7757H71.5525Z" fill="white"/>
</g>
<defs>
<filter id="filter0_d_31_89" x="-4.95911e-05" y="-4.95911e-05" width="124.4" height="124.4" filterUnits="userSpaceOnUse" color-interpolation-filters="sRGB">
<feFlood flood-opacity="0" result="BackgroundImageFix"/>
<feColorMatrix in="SourceAlpha" type="matrix" values="0 0 0 0 0 0 0 0 0 0 0 0 0 0 0 0 0 0 127 0" result="hardAlpha"/>
<feOffset dy="4"/>
<feGaussianBlur stdDeviation="15.35"/>
<feComposite in2="hardAlpha" operator="out"/>
<feColorMatrix type="matrix" values="0 0 0 0 0 0 0 0 0 0 0 0 0 0 0 0 0 0 0.17 0"/>
<feBlend mode="normal" in2="BackgroundImageFix" result="effect1_dropShadow_31_89"/>
<feBlend mode="normal" in="SourceGraphic" in2="effect1_dropShadow_31_89" result="shape"/>
</filter>
<linearGradient id="paint0_linear_31_89" x1="62.2" y1="26.7" x2="62.2" y2="89.7" gradientUnits="userSpaceOnUse">
<stop stop-color="#009BFF"/>
<stop offset="1" stop-color="#008DEA"/>
</linearGradient>
</defs>
</svg>
