<svg width="125" height="125" viewBox="0 0 125 125" fill="none" xmlns="http://www.w3.org/2000/svg">
<g filter="url(#filter0_d_31_71)">
<rect x="30.7" y="26.7" width="63" height="63" rx="13" fill="url(#paint0_linear_31_71)" shape-rendering="crispEdges"/>
<path d="M45.6379 69.5657C45.6379 72.326 47.7488 74.4369 50.5091 74.4369H73.241C76.0013 74.4369 78.1122 72.326 78.1122 69.5657V56.576H45.6379V69.5657ZM73.241 45.2101H69.9936V43.5864C69.9936 42.6121 69.3441 41.9626 68.3699 41.9626C67.3957 41.9626 66.7462 42.6121 66.7462 43.5864V45.2101H57.0039V43.5864C57.0039 42.6121 56.3544 41.9626 55.3802 41.9626C54.406 41.9626 53.7565 42.6121 53.7565 43.5864V45.2101H50.5091C47.7488 45.2101 45.6379 47.3209 45.6379 50.0812V53.3286H78.1122V50.0812C78.1122 47.3209 76.0013 45.2101 73.241 45.2101Z" fill="white"/>
</g>
<defs>
<filter id="filter0_d_31_71" x="-4.95911e-05" y="-4.95911e-05" width="124.4" height="124.4" filterUnits="userSpaceOnUse" color-interpolation-filters="sRGB">
<feFlood flood-opacity="0" result="BackgroundImageFix"/>
<feColorMatrix in="SourceAlpha" type="matrix" values="0 0 0 0 0 0 0 0 0 0 0 0 0 0 0 0 0 0 127 0" result="hardAlpha"/>
<feOffset dy="4"/>
<feGaussianBlur stdDeviation="15.35"/>
<feComposite in2="hardAlpha" operator="out"/>
<feColorMatrix type="matrix" values="0 0 0 0 0 0 0 0 0 0 0 0 0 0 0 0 0 0 0.17 0"/>
<feBlend mode="normal" in2="BackgroundImageFix" result="effect1_dropShadow_31_71"/>
<feBlend mode="normal" in="SourceGraphic" in2="effect1_dropShadow_31_71" result="shape"/>
</filter>
<linearGradient id="paint0_linear_31_71" x1="62.2" y1="26.7" x2="62.2" y2="89.7" gradientUnits="userSpaceOnUse">
<stop stop-color="#009BFF"/>
<stop offset="1" stop-color="#008DEA"/>
</linearGradient>
</defs>
</svg>
