<svg width="125" height="125" viewBox="0 0 125 125" fill="none" xmlns="http://www.w3.org/2000/svg">
<g filter="url(#filter0_d_31_41)">
<rect x="30.7" y="26.7" width="63" height="63" rx="13" fill="url(#paint0_linear_31_41)" shape-rendering="crispEdges"/>
<path d="M76.4853 43.5864V46.8338C76.4853 62.4653 67.7611 69.5658 57.0007 69.5658H53.9124C54.2567 64.6752 55.7797 61.7152 59.7545 58.1982C61.7095 56.469 61.5439 55.4704 60.581 56.0435C53.9498 59.9892 50.6553 65.3214 50.5091 73.8362L50.5043 74.4369H47.2568C47.2568 72.2238 47.4452 70.2153 47.8186 68.3773C47.4463 66.2762 47.2595 63.4249 47.2585 59.8235C47.2585 50.8558 54.5278 43.5864 63.4956 43.5864C66.743 43.5864 69.9904 45.2101 76.4853 43.5864Z" fill="white"/>
</g>
<defs>
<filter id="filter0_d_31_41" x="-4.95911e-05" y="-4.95911e-05" width="124.4" height="124.4" filterUnits="userSpaceOnUse" color-interpolation-filters="sRGB">
<feFlood flood-opacity="0" result="BackgroundImageFix"/>
<feColorMatrix in="SourceAlpha" type="matrix" values="0 0 0 0 0 0 0 0 0 0 0 0 0 0 0 0 0 0 127 0" result="hardAlpha"/>
<feOffset dy="4"/>
<feGaussianBlur stdDeviation="15.35"/>
<feComposite in2="hardAlpha" operator="out"/>
<feColorMatrix type="matrix" values="0 0 0 0 0 0 0 0 0 0 0 0 0 0 0 0 0 0 0.17 0"/>
<feBlend mode="normal" in2="BackgroundImageFix" result="effect1_dropShadow_31_41"/>
<feBlend mode="normal" in="SourceGraphic" in2="effect1_dropShadow_31_41" result="shape"/>
</filter>
<linearGradient id="paint0_linear_31_41" x1="62.2" y1="26.7" x2="62.2" y2="89.7" gradientUnits="userSpaceOnUse">
<stop stop-color="#009BFF"/>
<stop offset="1" stop-color="#008DEA"/>
</linearGradient>
</defs>
</svg>
