<svg width="20" height="20" viewBox="0 0 20 20" fill="none" xmlns="http://www.w3.org/2000/svg">
<path d="M19.7497 16.6304C19.6174 17.199 19.3053 17.7099 18.8598 18.0871C18.3624 18.593 17.7688 18.9941 17.1138 19.2667C16.4589 19.5394 15.756 19.6781 15.0466 19.6747H14.6918C13.2193 19.5979 11.7761 19.2337 10.4435 18.6024C10.1205 18.4508 9.80634 18.3091 9.43274 18.1367C7.87103 17.2547 6.43762 16.1627 5.17257 14.8913C3.52811 13.349 2.18055 11.5181 1.19681 9.4895C0.655228 8.38284 0.290421 7.19813 0.115667 5.97851C-0.128482 4.70759 0.0158631 3.3926 0.529891 2.2049C0.849638 1.6657 1.241 1.17233 1.69329 0.738271C1.89988 0.512903 2.1497 0.331402 2.42788 0.20457C2.70605 0.0777376 3.00691 0.00816735 3.31253 0C3.64578 0.0352257 3.96865 0.136643 4.26219 0.298302C4.55573 0.459961 4.81403 0.678608 5.02195 0.941419C5.4877 1.45672 6.03273 1.95221 6.52822 2.47742L7.1664 3.10569C7.54297 3.43568 7.77584 3.90045 7.8135 4.39989C7.81449 4.8597 7.64504 5.30267 7.33784 5.64455C7.14439 5.88428 6.93865 6.11384 6.72145 6.33228L6.5084 6.55525C6.38432 6.67055 6.2875 6.81205 6.22498 6.96947C6.17345 7.12208 6.15561 7.2846 6.17543 7.44514C6.33795 7.88513 6.59263 8.28548 6.92361 8.61844C7.43892 9.31608 7.9344 9.92355 8.49132 10.642C9.45184 11.7502 10.5906 12.6903 11.8606 13.4236C11.9825 13.5227 12.1282 13.5891 12.2847 13.6159C12.4235 13.6367 12.5632 13.6159 12.6891 13.5545C13.0749 13.3479 13.4182 13.0702 13.7008 12.7359C14.0576 12.2959 14.5749 12.0165 15.1377 11.956C15.4079 11.957 15.6752 12.0122 15.9237 12.1182C16.1722 12.2242 16.3969 12.379 16.5846 12.5734C16.8158 12.7729 17.0348 12.9853 17.2416 13.2106L17.5448 13.5346L17.8589 13.8379C18.0502 14.0301 18.2325 14.2025 18.4139 14.4047C18.7442 14.6888 19.0514 14.9956 19.3355 15.3253C19.6258 15.6959 19.7725 16.1597 19.7497 16.6304Z" fill="#0189E0"/>
</svg>
