<svg width="22" height="22" viewBox="0 0 22 22" fill="none" xmlns="http://www.w3.org/2000/svg">
<path d="M10.9724 0C17.0325 0 21.9449 4.91236 21.9449 10.9724C21.9449 17.0325 17.0325 21.9449 10.9724 21.9449C4.91236 21.9449 0 17.0325 0 10.9724C0 4.91236 4.91236 0 10.9724 0ZM10.9724 4.38898C10.6814 4.38898 10.4023 4.50458 10.1966 4.71035C9.9908 4.91613 9.8752 5.19522 9.8752 5.48622V10.9724C9.87526 11.2634 9.99091 11.5425 10.1967 11.7482L13.4884 15.0399C13.6954 15.2398 13.9725 15.3504 14.2602 15.3479C14.5479 15.3454 14.8231 15.23 15.0266 15.0266C15.23 14.8231 15.3454 14.5479 15.3479 14.2602C15.3504 13.9725 15.2398 13.6954 15.0399 13.4884L12.0697 10.5182V5.48622C12.0697 5.19522 11.9541 4.91613 11.7483 4.71035C11.5425 4.50458 11.2635 4.38898 10.9724 4.38898Z" fill="#0189E0"/>
</svg>
