<svg width="333" height="51" viewBox="0 0 333 51" fill="none" xmlns="http://www.w3.org/2000/svg">
<path d="M146.484 27.3087C144.895 27.0095 143.254 26.3199 142.238 25.5133C141.482 24.9148 140.557 23.861 140.557 23.6008C140.557 23.4056 142.498 20.9207 142.785 20.7385C142.863 20.6865 143.254 21.0117 143.684 21.4931C144.544 22.4429 145.807 23.3146 146.68 23.5617C147.006 23.6528 147.878 23.7309 148.634 23.7309C150.21 23.7439 150.992 23.4837 151.487 22.7941C151.904 22.2087 152.086 21.1418 151.904 20.4783C151.578 19.2944 150.77 18.813 148.139 18.2146C144.973 17.499 143.775 16.9916 142.655 15.8727C140.688 13.9082 140.583 10.0702 142.433 7.96251C143.032 7.27297 144.244 6.5444 145.429 6.15409C146.38 5.84185 146.667 5.80282 148.504 5.80282C150.366 5.78981 150.614 5.81583 151.695 6.15409C152.346 6.36226 153.193 6.70052 153.584 6.90869C154.522 7.40307 155.46 8.26175 155.33 8.48292C154.73 9.45869 153.389 11.189 153.232 11.189C153.128 11.189 152.802 10.9809 152.503 10.7337C151.343 9.7319 149.871 9.30256 148.048 9.39364C146.771 9.4717 145.846 9.862 145.403 10.5385C145.143 10.9158 145.104 11.124 145.143 11.7485C145.208 12.5811 145.468 13.0235 146.159 13.5049C146.641 13.8301 146.875 13.8952 149.09 14.3896C153.271 15.3003 154.574 16.0288 155.538 18.0194C156.202 19.3595 156.346 20.8686 155.994 22.573C155.72 23.822 155.238 24.7327 154.366 25.5523C152.959 26.8924 151.252 27.4648 148.712 27.4388C147.839 27.4258 146.849 27.3737 146.484 27.3087Z" fill="white"/>
<path d="M303.273 27.3086C298.74 26.4239 296.2 23.3145 295.705 18.0323C295.444 15.3782 295.874 12.6981 296.89 10.5775C297.646 8.97723 299.065 7.5461 300.655 6.79151C302.166 6.07595 303.065 5.85478 304.823 5.76371C306.139 5.69865 306.491 5.73769 307.715 6.03692C310.164 6.62238 311.558 7.53309 312.561 9.17238C313.304 10.3823 313.317 10.6425 312.665 11.0068C312.405 11.1499 311.727 11.5532 311.18 11.8915C310.633 12.2428 310.125 12.477 310.06 12.4379C309.982 12.3989 309.747 12.0476 309.539 11.6703C308.64 10.0831 307.376 9.43258 305.214 9.44559C303.677 9.4586 302.713 9.78386 301.801 10.6425C300.537 11.8265 300.016 13.2706 299.912 15.9767C299.743 20.0749 300.915 22.69 303.26 23.4966C304.81 24.03 307.194 23.7828 308.249 22.9762C308.966 22.4298 309.708 21.3499 309.969 20.4782C310.086 20.0879 310.203 19.7757 310.242 19.7757C310.294 19.7757 311.024 20.14 311.884 20.5823L313.447 21.389L313.356 21.8443C313.225 22.6249 312.287 24.3553 311.649 25.0188C310.464 26.2418 309.5 26.7882 307.806 27.1915C306.634 27.4647 304.38 27.5298 303.273 27.3086Z" fill="white"/>
<path d="M65.2634 16.6533V6.11506H67.5952H69.927L71.6725 9.01634C72.6365 10.6036 74.4342 13.5699 75.6717 15.6125C76.9092 17.6551 77.9905 19.3985 78.0947 19.5026C78.4464 19.8668 78.5767 19.5286 78.5376 18.2276C78.5246 17.538 78.5115 14.5327 78.5245 11.5403L78.5506 6.10205L80.4785 6.14108L82.3935 6.18011L82.4325 16.3931C82.4456 22.0135 82.4325 26.7362 82.3935 26.9054C82.3283 27.1916 82.2892 27.1916 80.3092 27.1916C78.8632 27.1916 78.264 27.1395 78.1598 27.0355C78.0816 26.9444 76.1276 23.7049 73.8089 19.8408C71.412 15.8337 69.4971 12.8023 69.3798 12.7763C69.1844 12.7373 69.1714 13.3617 69.1714 19.9579V27.1916H67.2174H65.2634V16.6533Z" fill="white"/>
<path d="M85.9368 27.1132C85.8977 27.0742 85.9629 26.7619 86.0931 26.4237C86.2234 26.0984 87.8126 21.3887 89.6233 15.9635L92.9321 6.11475L95.5765 6.14077L98.2079 6.1798L101.686 16.4579C103.588 22.1173 105.151 26.827 105.164 26.9311C105.19 27.1002 104.865 27.1262 103.08 27.1653L100.97 27.1913L100.214 24.8234L99.4454 22.4426H95.4983H91.5513L90.8088 24.7844L90.0793 27.1262L88.0471 27.1653C86.9399 27.1783 85.9889 27.1653 85.9368 27.1132ZM98.1949 18.6696C98.2209 18.6436 97.6608 16.8221 96.9573 14.6104C96.0976 11.9173 95.6156 10.6033 95.4983 10.6033C95.2769 10.6033 92.6976 18.6176 92.867 18.7346C92.9842 18.7997 98.1167 18.7477 98.1949 18.6696Z" fill="white"/>
<path d="M110.596 18.4094V9.6275H107.6H104.604V7.87112V6.11475H112.55H120.496L120.509 7.28566C120.509 7.93617 120.522 8.70378 120.522 9.01602L120.535 9.56245L117.591 9.60148L114.634 9.6275V18.4094V27.1913H112.615H110.596V18.4094Z" fill="white"/>
<path d="M124.235 27.1002C124.183 27.0612 124.144 22.3125 124.144 16.5619V6.11475L130.996 6.14077L137.835 6.1798V7.67597C137.835 8.49561 137.835 9.27623 137.835 9.40633C137.822 9.61449 137.509 9.6275 133.067 9.6275H128.312L128.338 12.0604L128.377 14.5063L132.285 14.5323C134.435 14.5454 136.298 14.5584 136.428 14.5584C136.623 14.5714 136.649 14.7405 136.649 16.2627V17.954H132.481H128.312V20.8163V23.6785H133.197H138.095L138.056 25.4089L138.017 27.1262L131.165 27.1653C127.4 27.1783 124.274 27.1522 124.235 27.1002Z" fill="white"/>
<path d="M167.522 16.653V6.11475H172.121C175.664 6.11475 176.889 6.16679 177.501 6.3099C179.833 6.85633 181.318 8.15735 182.06 10.317C182.542 11.6701 182.542 13.7257 182.073 15.0658C181.461 16.8091 180.588 17.8499 179.09 18.6045C177.996 19.138 177.266 19.2551 174.283 19.3591L171.626 19.4502L171.613 23.2882L171.587 27.1262L169.555 27.1653L167.522 27.2043V16.653ZM176.784 15.6382C177.866 15.1048 178.426 13.8818 178.309 12.3206C178.191 10.9285 177.54 10.0178 176.459 9.69255C176.003 9.54944 175.182 9.4974 173.684 9.4974H171.561V12.6589C171.561 14.4022 171.6 15.8724 171.665 15.9244C171.717 15.9765 172.759 16.0025 173.971 15.9765C175.964 15.9375 176.25 15.9114 176.784 15.6382Z" fill="white"/>
<path d="M186.802 16.653V6.11475H188.821H190.84L190.866 10.0568L190.905 13.9859L195.439 14.025L199.959 14.051V10.0829V6.11475H202.043H204.127V16.4448C204.127 22.1303 204.088 26.866 204.049 26.9831C203.984 27.1653 203.672 27.1913 201.965 27.1913H199.959V22.3775V17.5637H195.4H190.84V22.3775V27.1913H188.821H186.802V16.653Z" fill="white"/>
<path d="M207.488 27.1262C207.449 27.0872 208.908 22.6117 210.732 17.1994C212.569 11.7872 214.145 7.0775 214.249 6.73924L214.445 6.11475H217.076H219.707L220.658 8.95097C225.504 23.3272 226.664 26.814 226.664 26.9831C226.664 27.1653 226.377 27.1913 224.592 27.1913C222.547 27.1913 222.508 27.1913 222.417 26.9051C222.352 26.7359 222.013 25.6691 221.648 24.5242L220.984 22.4426H217.024H213.064L212.334 24.7844L211.605 27.1262L209.586 27.1653C208.478 27.1783 207.527 27.1653 207.488 27.1262ZM219.746 18.6436C219.746 18.5785 219.173 16.7571 218.47 14.5714C217.584 11.8002 217.141 10.6033 217.011 10.6033C216.815 10.6033 216.659 11.0456 215.786 13.8558C215.513 14.7145 215.07 16.1196 214.796 16.9913C214.51 17.85 214.288 18.6045 214.288 18.6436C214.288 18.6956 215.526 18.7346 217.024 18.7346C218.535 18.7346 219.759 18.6956 219.746 18.6436Z" fill="white"/>
<path d="M230.181 16.6533V6.10205L235.3 6.14108C240.211 6.19312 240.446 6.20613 241.253 6.49236C242.999 7.09083 244.262 8.36583 244.653 9.91404C244.914 10.9418 244.888 12.6592 244.575 13.661C244.367 14.3635 244.197 14.6367 243.533 15.3003C243.025 15.8207 242.465 16.224 241.944 16.4582C241.488 16.6663 241.123 16.8875 241.123 16.9396C241.123 16.9916 241.345 17.1867 241.618 17.3559C242.295 17.7852 242.79 18.3837 243.207 19.3204C243.52 19.9839 245.813 26.8793 245.813 27.1135C245.813 27.1526 244.875 27.1916 243.741 27.1916H241.67L241.462 26.5801C241.358 26.2288 240.876 24.7327 240.394 23.2235C239.234 19.5676 239.039 19.2033 238.062 18.6959C237.619 18.4748 237.28 18.4357 235.912 18.4227L234.284 18.4097L234.258 22.7681L234.232 27.1265L232.2 27.1656L230.181 27.2046V16.6533ZM239.547 14.7668C239.794 14.6237 240.172 14.2855 240.394 14.0123C240.745 13.5699 240.797 13.3878 240.836 12.5551C240.915 11.137 240.55 10.2783 239.651 9.78394C239.312 9.60179 238.765 9.54975 236.824 9.49771C235.378 9.45868 234.375 9.4847 234.323 9.54975C234.206 9.7319 234.193 14.8839 234.31 15.014C234.362 15.0661 235.469 15.0921 236.759 15.0661C238.817 15.0271 239.156 15.001 239.547 14.7668Z" fill="white"/>
<path d="M249.812 27.1132C249.695 26.9961 249.695 6.60913 249.799 6.32291C249.864 6.14077 250.229 6.11475 252.521 6.11475H255.166L257.003 11.6181C258.019 14.6364 259.178 18.1232 259.582 19.3591C259.999 20.5821 260.389 21.5969 260.468 21.5969C260.546 21.5969 261.77 18.1102 263.19 13.8558L265.756 6.11475H268.362H270.954V16.653V27.2043L269.039 27.1653L267.111 27.1262L267.072 20.1918C267.046 14.8446 267.007 13.2573 266.89 13.2964C266.799 13.3354 266.395 14.3502 265.978 15.5602C265.574 16.7701 264.506 19.8795 263.633 22.4816L262.031 27.1913H260.389C258.579 27.1913 258.579 27.1913 258.318 26.3456C258.11 25.6691 254.918 16.1977 254.319 14.4673C254.058 13.7257 253.798 13.1793 253.746 13.2313C253.681 13.2964 253.616 16.4448 253.603 20.2308L253.563 27.1262L251.727 27.1653C250.724 27.1783 249.864 27.1522 249.812 27.1132Z" fill="white"/>
<path d="M274.471 27.0482C274.471 26.9701 276.008 22.3645 277.871 16.8091C279.747 11.2538 281.31 6.5701 281.336 6.40097L281.401 6.11475L284.085 6.14077L286.768 6.1798L287.25 7.67597C287.524 8.49561 289.087 13.2053 290.741 18.1232C292.396 23.041 293.751 27.1002 293.751 27.1262C293.751 27.1653 292.787 27.1913 291.614 27.1913H289.491L288.827 25.1487C288.462 24.0168 288.123 22.9369 288.084 22.7418L287.993 22.3775H284.033C280.971 22.3775 280.06 22.4165 280.021 22.5466C279.994 22.6247 279.734 23.4704 279.447 24.3941C279.161 25.3308 278.848 26.3326 278.77 26.6448L278.627 27.1913H276.555C275.162 27.1913 274.471 27.1392 274.471 27.0482ZM285.544 14.7795C284.84 12.6068 284.241 10.7594 284.189 10.6813C283.929 10.265 283.902 10.317 282.443 14.9617C281.857 16.7831 281.349 18.3834 281.31 18.5135C281.219 18.7216 281.401 18.7346 284.007 18.7346H286.807L285.544 14.7795Z" fill="white"/>
<path d="M321.758 23.028V18.8778L320.533 16.692C317.277 10.8505 314.945 6.60913 314.893 6.37495C314.828 6.12776 314.893 6.11475 316.951 6.11475L319.087 6.12776L319.674 7.18158C320.247 8.2224 321.927 11.2147 323.165 13.3614C323.503 13.9599 323.842 14.4283 323.907 14.4022C324.09 14.3372 324.324 13.9469 326.083 10.7334C326.943 9.15913 327.867 7.49383 328.128 7.02546L328.61 6.1798L330.798 6.14077L333 6.11475L332.778 6.42699C332.596 6.72623 332.153 7.50684 329.769 11.8392C329.392 12.5158 328.936 13.3354 328.766 13.6607C328.128 14.7926 326.265 18.1492 326.031 18.6045C325.822 19.0079 325.796 19.4372 325.796 23.1191V27.1913H323.777H321.758V23.028Z" fill="white"/>
<path d="M0 30.288C0 10.5645 0 10.1742 0.260533 8.97724C0.690412 6.98668 1.28964 6.01091 3.30877 3.92928C4.46814 2.73234 5.48422 1.99076 6.98228 1.26219C8.28494 0.62469 8.7539 0.481578 10.6949 0.195353C12.0887 -0.0128102 12.4014 0.000200063 15.1109 0.403516C16.1791 0.572649 18.9017 1.47035 19.6442 1.89969C20.4388 2.36806 21.9108 3.78617 22.8618 5.00913C23.6043 5.97188 26.5353 10.1482 36.1229 23.8739C38.1159 26.7362 39.9006 29.2211 40.083 29.4033L40.4086 29.7285L40.3565 29.3772C40.2784 28.9479 40.3956 28.8959 40.578 29.2732C40.6561 29.4163 41.6331 30.8604 42.7665 32.4737C45.0331 35.6742 45.6584 36.8061 46.1925 38.5755C46.5312 39.6683 46.5572 39.9155 46.5572 42.1533C46.5572 45.0936 46.4921 45.3278 45.3978 46.2124C42.7274 48.3461 41.06 49.2178 38.5849 49.7512C36.8654 50.1155 36.3443 50.1675 36.3443 49.9594C36.3443 49.8813 36.7872 49.3479 37.3344 48.7624C38.8064 47.1882 38.8585 47.0321 38.8715 43.9747C38.8845 41.5938 38.8715 41.3987 38.5849 40.7872C38.2983 40.1497 33.8693 33.4885 31.4854 30.1058C30.821 29.1691 29.818 27.738 29.2448 26.9183C28.2548 25.5132 26.6395 23.0673 22.1453 16.1719C21.038 14.4675 19.4227 11.9826 18.5369 10.6425L16.9346 8.20964L16.0749 7.79331C15.3193 7.41602 15.0327 7.35097 14.0167 7.31193C12.6228 7.24688 11.4374 7.41602 10.3953 7.79331C8.87114 8.37877 8.45429 8.87316 8.21981 10.4084C8.14165 10.9028 8.06349 18.2925 8.01138 28.2974L7.93322 45.3408L7.49032 46.2515C6.31792 48.6714 4.01221 50.1545 1.21148 50.3107L0 50.3887L0 30.288Z" fill="white"/>
<path d="M28.2678 50.8181C28.2678 50.714 28.0724 50.6099 27.7727 50.5709C27.1605 50.4668 26.1053 49.8033 25.2586 48.9837C24.8939 48.6324 23.8908 47.3444 23.018 46.1344C22.1583 44.9115 20.8556 43.09 20.1261 42.0882C19.3966 41.0865 18.2242 39.4472 17.5208 38.4454C16.8043 37.4436 15.4365 35.5051 14.4465 34.139C13.2871 32.4997 12.5186 31.3028 12.232 30.6263C11.8151 29.6375 11.8021 29.5464 11.7891 27.8421C11.7891 26.3199 11.8281 25.9816 12.0887 25.3051C12.727 23.6528 14.1078 22.1826 15.6059 21.5972C16.5308 21.2329 18.133 21.1158 19.1361 21.337C20.048 21.5451 21.3897 22.2087 22.1062 22.8201C22.3927 23.0803 23.9429 25.1229 25.5452 27.3477C27.1344 29.5854 28.867 32.0053 29.375 32.7209C34.3512 39.6683 35.2761 41.0344 35.5497 41.8931C35.8493 42.8558 35.9665 44.2609 35.8232 45.3278C35.4845 47.9298 33.4393 50.3367 31.2899 50.688C30.9903 50.727 30.7819 50.8181 30.821 50.8831C30.8601 50.9482 30.2999 51.0002 29.5835 51.0002C28.5543 51.0002 28.2678 50.9612 28.2678 50.8181ZM24.451 40.2538C26.9521 39.6033 28.7628 37.3525 29.2448 34.2821C29.3229 33.8398 29.2448 33.9308 28.6976 34.9717C27.916 36.4939 27.1475 37.4436 26.0532 38.2632C24.6203 39.3431 22.2364 40.0717 20.1522 40.0717C18.9407 40.0717 19.1491 40.2798 20.5169 40.449C21.7805 40.6051 23.4349 40.514 24.451 40.2538Z" fill="white"/>
<path d="M45.5931 45.5879C45.8146 45.1846 45.9839 44.7813 45.9839 44.6772C45.9839 44.5731 46.0621 44.495 46.1663 44.495C46.2835 44.495 46.3747 44.3389 46.4008 44.1438C46.4398 43.8185 46.4919 43.7795 47 43.7405C47.2996 43.7144 47.5471 43.7405 47.5471 43.7795C47.5471 44.0657 46.2184 45.6009 45.567 46.0693L45.2153 46.3295L45.5931 45.5879Z" fill="white"/>
<path d="M48.1984 40.7998C48.1984 40.6306 48.1463 40.4615 48.0682 40.4355C47.99 40.4095 47.9249 33.2148 47.9118 20.2046C47.8728 0.0257806 47.8728 0.0127711 48.1333 0.233945C48.2766 0.351036 48.472 0.533179 48.5632 0.637261C48.6804 0.793383 48.7195 4.98267 48.7195 20.673C48.7195 31.5885 48.6804 40.6566 48.6413 40.8258C48.5371 41.2161 48.1984 41.2031 48.1984 40.7998Z" fill="white"/>
<path d="M40.3564 29.9886C40.0959 29.6374 40.0568 29.4812 40.2652 29.5983C40.3564 29.6634 40.3825 29.5073 40.3434 29.156C40.3043 28.7136 40.3304 28.6226 40.5258 28.6226C40.6951 28.6226 40.7733 28.7657 40.8384 29.195C40.9296 29.7544 40.8384 30.3139 40.6691 30.3139C40.617 30.3139 40.4737 30.1708 40.3564 29.9886Z" fill="white"/>
<path d="M40.3826 26.5409C40.3826 25.8513 40.4086 25.7603 40.6431 25.7603C40.8776 25.7603 40.9036 25.8513 40.9036 26.5409C40.9036 27.2304 40.8776 27.3215 40.6431 27.3215C40.4086 27.3215 40.3826 27.2304 40.3826 26.5409Z" fill="white"/>
<path d="M40.3826 22.703C40.3826 19.9968 40.3956 19.9058 40.6431 19.9058C40.8906 19.9058 40.9036 19.9968 40.9036 22.703C40.9036 25.4091 40.8906 25.5001 40.6431 25.5001C40.3956 25.5001 40.3826 25.4091 40.3826 22.703Z" fill="white"/>
<path d="M40.5127 6.86919C40.5127 5.75031 40.6039 5.33398 40.8514 5.33398C40.9947 5.33398 41.0338 5.6072 41.0338 6.56995C41.0338 7.71485 41.0207 7.80592 40.7732 7.80592C40.5387 7.80592 40.5127 7.71485 40.5127 6.86919Z" fill="white"/>
<path d="M45.4629 0.494388C45.4629 0.273214 46.0621 0 46.5311 0C46.987 0 47.0521 0.455357 46.6092 0.572449C46.0882 0.702551 45.4629 0.66352 45.4629 0.494388Z" fill="white"/>
<path d="M245.253 43.6233C245.2 43.5842 245.161 43.4151 245.161 43.246C245.161 43.0248 245.253 42.9337 245.552 42.8687C245.93 42.7906 246.112 42.4133 245.774 42.4133C245.448 42.4133 245.135 41.9319 245.227 41.6067C245.344 41.2424 245.526 41.1123 245.904 41.1123C246.751 41.1123 246.842 42.5694 246.047 43.4281C245.774 43.7143 245.422 43.8054 245.253 43.6233Z" fill="white"/>
<path d="M76.271 42.2575C76.2319 42.1665 76.2189 40.7614 76.2319 39.1611L76.271 36.2338H76.9875H77.7039L78.6028 38.4976C79.3974 40.4882 79.5277 40.7354 79.6449 40.4752C79.7101 40.319 80.1269 39.2912 80.5568 38.2114L81.3514 36.2338L82.1069 36.1948L82.8495 36.1558L82.8234 39.2522L82.7843 42.3486H82.3284H81.8725L81.8073 40.267L81.7422 38.1854L81.4686 38.7708C81.3254 39.0961 80.9736 39.9678 80.7001 40.7223C80.4265 41.4769 80.1399 42.1665 80.0618 42.2575C79.9054 42.4787 79.0587 42.4007 78.9415 42.1535C78.8763 42.0494 78.5507 41.2037 78.1859 40.267C77.8342 39.3303 77.4955 38.4586 77.4304 38.3155C77.3522 38.1463 77.2871 38.8098 77.248 40.2019L77.1829 42.3486L76.753 42.3876C76.4925 42.4137 76.3101 42.3616 76.271 42.2575Z" fill="white"/>
<path d="M89.5581 42.1665C88.9719 41.9063 88.3727 41.2688 88.0992 40.6313C87.8516 40.0068 87.8907 38.4326 88.1773 37.7951C88.6463 36.7413 89.7145 36.1298 91.0562 36.1428C92.0332 36.1428 92.4631 36.2859 93.1665 36.8323C93.909 37.4308 94.2217 38.1333 94.2347 39.2262C94.2477 40.7224 93.4792 41.8933 92.2416 42.2706C91.4861 42.4918 90.1574 42.4397 89.5581 42.1665ZM92.0071 41.1907C93.4922 40.5793 93.3749 37.9252 91.8378 37.3137C90.939 36.9494 89.6884 37.3657 89.2846 38.1464C88.985 38.7058 89.011 39.9548 89.3237 40.4882C89.7796 41.2818 91.0171 41.6071 92.0071 41.1907Z" fill="white"/>
<path d="M99.3281 42.2572C99.2891 42.1661 99.276 40.761 99.2891 39.1607L99.3281 36.2334L100.566 36.1944C102.259 36.1424 102.845 36.2464 103.34 36.6888C103.718 37.0271 103.757 37.1181 103.757 37.8597C103.757 38.5753 103.718 38.6924 103.405 38.9656C103.21 39.1347 102.976 39.2908 102.884 39.3168C102.767 39.3559 102.832 39.473 103.067 39.6941C103.288 39.8893 103.562 40.3707 103.77 40.9822C104.226 42.3352 104.226 42.3352 103.666 42.3873C103.106 42.4393 102.884 42.1921 102.65 41.2163C102.402 40.2666 102.038 39.9413 101.165 39.9413H100.448L100.409 41.1513L100.37 42.3482L99.8753 42.3873C99.5626 42.4133 99.3672 42.3742 99.3281 42.2572ZM102.442 38.6143C102.702 38.237 102.702 37.6776 102.442 37.4174C102.298 37.2612 101.986 37.2092 101.334 37.2092H100.435V38.0549V38.9005H101.334C102.129 38.9005 102.272 38.8615 102.442 38.6143Z" fill="white"/>
<path d="M108.968 42.2571C108.942 42.166 108.929 40.774 108.942 39.1607L108.968 36.2334H111.117H113.267L113.306 36.7148L113.345 37.1962L111.743 37.2352L110.14 37.2742V37.9247V38.5752L111.677 38.6143L113.215 38.6533L113.176 39.1347L113.136 39.6161L111.677 39.6551C110.023 39.6941 110.01 39.7071 110.101 40.8L110.14 41.3074L111.808 41.3464L113.462 41.3854V41.8928V42.4132H111.248C109.58 42.4132 109.007 42.3742 108.968 42.2571Z" fill="white"/>
<path d="M125.642 42.2572C125.603 42.1662 125.564 41.0083 125.551 39.6812L125.512 37.2743L124.561 37.2353C123.532 37.1963 123.401 37.0922 123.545 36.4937L123.623 36.1685L126.137 36.1945L128.638 36.2335L128.677 36.7149L128.716 37.2093H127.739H126.749L126.723 39.7853L126.684 42.3483L126.189 42.3873C125.876 42.4134 125.681 42.3743 125.642 42.2572Z" fill="white"/>
<path d="M133.549 39.3302L133.588 36.2338L133.966 36.1947C134.175 36.1687 134.396 36.2078 134.461 36.2728C134.539 36.3509 134.604 36.8713 134.617 37.4307L134.63 38.4455L136.285 38.4845L137.939 38.5236L137.978 37.3787L138.017 36.2338L138.421 36.1947C139.125 36.1297 139.151 36.2468 139.099 39.4473L139.06 42.3486H138.538H138.017L137.952 40.9825L137.887 39.6164H136.259H134.63L134.617 40.9825L134.591 42.3486L134.057 42.3876L133.523 42.4266L133.549 39.3302Z" fill="white"/>
<path d="M144.335 39.2909V36.1685H146.419C148.66 36.1685 148.79 36.2075 148.66 36.897C148.608 37.2093 148.582 37.2093 147.071 37.2093C145.351 37.2093 145.312 37.2353 145.469 38.198L145.547 38.6404H147.019H148.504V39.1608V39.6812H147.019H145.534L145.482 40.4358C145.456 40.8391 145.442 41.2164 145.469 41.2815C145.508 41.3335 146.25 41.3725 147.123 41.3725C148.556 41.3725 148.738 41.3986 148.79 41.6067C148.829 41.7368 148.803 41.971 148.751 42.1271C148.647 42.4003 148.595 42.4134 146.485 42.4134H144.335V39.2909Z" fill="white"/>
<path d="M153.779 42.2835C153.714 42.1794 153.688 39.2131 153.714 36.3248C153.714 36.2077 153.91 36.1687 154.392 36.1947L155.082 36.2337L156.515 38.2894L157.948 40.345L158.013 38.2894L158.078 36.2337H158.599H159.12L159.159 39.3302L159.186 42.4136H158.704C158.091 42.4136 157.987 42.3485 157.531 41.685C157.336 41.3988 156.671 40.4491 156.072 39.5774C155.473 38.7057 154.926 37.9901 154.861 37.9901C154.796 37.9901 154.743 38.7057 154.756 39.6554C154.796 42.6218 154.822 42.4136 154.314 42.4136C154.066 42.4136 153.819 42.3485 153.779 42.2835Z" fill="white"/>
<path d="M170.323 42.2963C170.245 42.2182 170.206 41.0343 170.232 39.1738L170.271 36.1685H170.883C171.222 36.1685 171.561 36.2205 171.652 36.2725C171.743 36.3246 172.173 37.3134 172.616 38.4452C173.046 39.5901 173.45 40.5789 173.502 40.631C173.567 40.683 173.919 39.9284 174.283 38.9396C175.365 36.1034 175.273 36.2335 176.12 36.2335H176.837V39.2909C176.837 42.1401 176.824 42.3483 176.602 42.3873C176.472 42.4134 176.211 42.4003 176.042 42.3613L175.716 42.2702L175.755 40.3317C175.781 39.2519 175.755 38.3802 175.716 38.3802C175.664 38.3802 175.273 39.2779 174.844 40.3708L174.062 42.3483L173.593 42.3873C173.059 42.4394 173.059 42.4394 172.186 40.2016C171.86 39.382 171.548 38.5884 171.483 38.4452C171.405 38.2761 171.339 38.9006 171.3 40.2667L171.235 42.3483L170.844 42.3873C170.623 42.4134 170.388 42.3613 170.323 42.2963Z" fill="white"/>
<path d="M182.204 42.3353C182.152 42.2833 182.113 40.8781 182.113 39.1998V36.1685L184.301 36.1945L186.476 36.2335L186.516 36.7149L186.555 37.1963L184.952 37.2353L183.35 37.2743L183.311 37.9639L183.272 38.6404H184.77C185.591 38.6404 186.294 38.6924 186.333 38.7575C186.372 38.8225 186.372 39.0567 186.333 39.2779L186.255 39.6812H184.757H183.272L183.311 40.5009L183.35 41.3075L185.017 41.3465L186.685 41.3855L186.646 41.8669L186.607 42.3483L184.444 42.3873C183.259 42.4003 182.256 42.3743 182.204 42.3353Z" fill="white"/>
<path d="M191.413 42.2441C191.387 42.153 191.374 40.7609 191.387 39.1607L191.427 36.2334H193.185C194.722 36.2464 195.009 36.2724 195.465 36.5196C196.65 37.1571 197.015 37.7816 197.028 39.2257C197.028 40.9951 196.298 41.9969 194.761 42.2831C193.732 42.4783 191.505 42.4523 191.413 42.2441ZM195.061 41.0732C195.556 40.7349 195.843 40.1104 195.843 39.2908C195.856 37.8467 195.087 37.1831 193.511 37.2352L192.599 37.2742L192.56 39.1607C192.547 40.1885 192.56 41.1122 192.599 41.2163C192.703 41.4895 194.605 41.3724 195.061 41.0732Z" fill="white"/>
<path d="M202.108 42.2571C202.069 42.166 202.056 40.7609 202.069 39.1607L202.108 36.2334H202.629H203.151V39.2908V42.3482L202.656 42.3872C202.343 42.4132 202.148 42.3742 202.108 42.2571Z" fill="white"/>
<path d="M209.911 42.2184C209.312 41.9452 208.478 40.9434 208.309 40.2669C207.736 38.0031 209.13 36.1036 211.37 36.1297C212.321 36.1297 212.908 36.3769 213.455 36.9753L213.937 37.5087L213.507 37.899L213.077 38.2763L212.647 37.821C212.413 37.5608 212.061 37.3136 211.852 37.2746C211.657 37.2225 211.409 37.1575 211.318 37.1314C210.98 37.0274 210.003 37.5738 209.742 38.0031C209.351 38.6406 209.26 39.4603 209.521 40.1238C209.833 40.9564 210.25 41.2817 211.071 41.3467C211.957 41.4118 212.543 41.1386 212.803 40.5271C213.038 39.9416 213.129 39.9156 213.611 40.2019L214.028 40.4621L213.832 40.9434C213.585 41.5549 212.855 42.2314 212.308 42.3355C211.644 42.4656 210.341 42.4006 209.911 42.2184Z" fill="white"/>
<path d="M218.782 42.127C218.743 41.9579 218.73 40.5658 218.743 39.0306L218.782 36.2334H219.304H219.825V39.2908V42.3482L219.343 42.3872C218.926 42.4263 218.848 42.3872 218.782 42.127Z" fill="white"/>
<path d="M225.166 42.2575C225.126 42.1664 225.113 40.7613 225.126 39.161L225.166 36.2338L225.752 36.1947C226.077 36.1817 226.403 36.2077 226.481 36.2598C226.559 36.3248 227.107 37.0664 227.706 37.9251C228.305 38.7838 228.943 39.6945 229.126 39.9417L229.464 40.397L229.529 38.3154L229.595 36.2338H230.116H230.637V39.2911V42.3485L230.09 42.3876C229.412 42.4396 229.477 42.5047 227.224 39.135C226.807 38.5105 226.429 38.0031 226.377 37.9901C226.325 37.9901 226.26 38.9659 226.247 40.1758L226.208 42.3485L225.713 42.3876C225.4 42.4136 225.205 42.3746 225.166 42.2575Z" fill="white"/>
<path d="M236.004 42.3353C235.952 42.2833 235.913 40.8781 235.913 39.1998V36.1685H237.984C240.224 36.1685 240.368 36.2075 240.25 36.858L240.185 37.2093H238.648C236.942 37.2093 236.968 37.1963 237.059 38.094L237.111 38.6404H238.583C240.003 38.6404 240.055 38.6534 240.107 38.9396C240.237 39.6552 240.185 39.6812 238.57 39.6812H237.085V40.5269V41.3725H238.726H240.355L240.316 41.8669L240.277 42.3483L238.179 42.3873C237.033 42.4003 236.056 42.3743 236.004 42.3353Z" fill="white"/>
<path d="M258.449 42.3353C258.201 42.2702 256.703 36.4287 256.872 36.2595C257.042 36.0904 257.823 36.2075 257.941 36.4287C257.993 36.5327 258.253 37.5475 258.514 38.6794C258.774 39.8113 259.035 40.709 259.074 40.657C259.126 40.6049 259.23 40.2927 259.321 39.9674C259.751 38.1981 260.233 36.4807 260.311 36.3246C260.377 36.2465 260.611 36.1685 260.846 36.1685C261.093 36.1685 261.341 36.2465 261.406 36.3246C261.484 36.4157 261.783 37.4825 262.096 38.6794C262.409 39.8894 262.708 40.7871 262.747 40.696C262.8 40.6049 263.034 39.6162 263.269 38.5103C263.503 37.4044 263.751 36.4287 263.803 36.3506C263.92 36.2075 264.754 36.1815 264.897 36.3116C264.936 36.3506 264.793 37.0532 264.597 37.8728C264.389 38.6924 264.089 39.9154 263.933 40.5919C263.49 42.4524 263.516 42.4134 262.747 42.4134C261.979 42.4134 262.044 42.5435 261.445 40.2016C261.21 39.3039 260.976 38.4973 260.924 38.4062C260.872 38.3021 260.65 38.8876 260.416 39.7723C259.621 42.6215 259.751 42.3483 259.165 42.3743C258.879 42.3743 258.553 42.3613 258.449 42.3353Z" fill="white"/>
<path d="M269.847 42.3353C269.743 42.2963 269.704 39.4861 269.782 36.4026C269.782 36.1945 269.977 36.1685 271.918 36.1685C274.237 36.1685 274.302 36.1945 274.133 36.897C274.054 37.2093 274.028 37.2093 272.504 37.2093H270.954V37.9248V38.6404H272.452H273.95V39.1608V39.6812H272.452H270.954V40.5399V41.3855L272.53 41.3595C273.429 41.3465 274.159 41.3986 274.237 41.4766C274.302 41.5417 274.341 41.7628 274.315 41.971L274.276 42.3483L272.127 42.3743C270.941 42.3873 269.925 42.3743 269.847 42.3353Z" fill="white"/>
<path d="M286.391 42.1793C284.984 41.5028 284.385 39.8635 284.893 38.0681C285.218 36.8841 286.873 35.8954 288.188 36.1035C288.983 36.2336 289.739 36.6239 290.064 37.0923C290.39 37.5737 290.351 37.7298 289.843 38.029C289.465 38.2502 289.465 38.2502 289.244 37.925C288.566 36.8841 286.886 36.9492 286.208 38.029C285.831 38.6405 285.831 39.9546 286.195 40.566C286.534 41.1255 287.238 41.4247 288.045 41.3466C288.749 41.2686 289.087 41.0344 289.335 40.4229C289.426 40.1887 289.517 39.9936 289.53 39.9676C289.595 39.8765 290.338 40.3318 290.403 40.514C290.52 40.8002 290.09 41.5028 289.543 41.9451C289.113 42.2834 288.944 42.3354 287.98 42.3745C287.133 42.4135 286.808 42.3745 286.391 42.1793Z" fill="white"/>
<path d="M294.702 42.1271C294.767 41.8149 296.786 36.845 297.021 36.4157C297.125 36.2205 297.294 36.1685 297.841 36.1685C298.519 36.1685 298.532 36.1815 298.727 36.6628C300.316 40.5399 300.915 42.0751 300.915 42.2312C300.915 42.4654 299.965 42.4784 299.782 42.2572C299.704 42.1662 299.574 41.8669 299.483 41.5937L299.326 41.0993L297.815 41.1384L296.304 41.1774L296.083 41.7628C295.874 42.3353 295.848 42.3483 295.249 42.3873C294.663 42.4264 294.637 42.4134 294.702 42.1271ZM298.831 39.9804C298.831 39.7983 297.88 37.4695 297.802 37.4695C297.763 37.4695 297.516 38.0029 297.268 38.6534C297.021 39.3169 296.799 39.9024 296.773 39.9544C296.747 40.0195 297.203 40.0715 297.776 40.0715C298.362 40.0715 298.831 40.0325 298.831 39.9804Z" fill="white"/>
<path d="M305.748 42.2443C305.644 42.1012 305.605 41.2425 305.631 39.1479L305.67 36.2336L307.168 36.1946C309.487 36.1425 310.164 36.5198 310.164 37.8989C310.164 38.5234 309.826 39.0828 309.37 39.2259C309.109 39.317 309.109 39.33 309.448 39.6813C309.761 40.0065 310.555 41.854 310.555 42.2573C310.555 42.3744 310.386 42.4134 310.008 42.3874C309.396 42.3484 309.239 42.1402 308.992 41.1514C308.784 40.3318 308.484 40.0456 307.702 39.9415C307.272 39.8894 306.986 39.9025 306.908 40.0065C306.843 40.0846 306.777 40.644 306.751 41.2425L306.712 42.3484L306.308 42.3874C306.074 42.4134 305.84 42.3484 305.748 42.2443ZM308.797 38.6405C309.096 38.3022 309.083 37.5997 308.771 37.3655C308.614 37.2614 308.236 37.2093 307.689 37.2354L306.843 37.2744L306.804 37.9119C306.738 38.8616 306.777 38.9007 307.728 38.9007C308.393 38.9007 308.614 38.8486 308.797 38.6405Z" fill="white"/>
<path d="M315.57 42.2963C315.492 42.2182 315.453 40.9432 315.479 39.1608L315.518 36.1685L317.694 36.1945L319.869 36.2335V36.6889V37.1442L318.28 37.1833C316.521 37.2223 316.547 37.1963 316.665 38.2241L316.704 38.6404H318.189H319.674V39.1608V39.6812H318.176H316.678V40.5269V41.3725H318.293C320.039 41.3725 320.156 41.4246 319.986 42.1011L319.908 42.4134H317.798C316.639 42.4134 315.636 42.3613 315.57 42.2963Z" fill="white"/>
<path d="M45.5803 45.6269C46.6745 43.5583 46.3879 39.6552 44.942 36.7799C44.6684 36.2335 43.5481 34.5032 42.4539 32.9419C40.4217 30.0537 40.3957 30.0016 40.3696 28.7526C40.3696 28.5054 40.3957 24.056 40.4348 18.8649C40.4999 8.78198 40.5781 5.94576 40.7995 4.81387C41.0079 3.73402 41.529 2.74525 42.3627 1.91259C43.5091 0.754684 44.9159 0.208256 47.1826 0.0391229C47.8209 -0.0129179 47.9381 0.0131025 48.0944 0.247286C48.1856 0.403409 48.3289 0.5205 48.4201 0.5205C48.5113 0.5205 48.5894 0.585551 48.5894 0.650602C48.5894 0.728664 48.5373 0.780704 48.4592 0.780704C48.368 0.780704 48.3289 7.41591 48.3289 20.4261C48.3289 33.4363 48.368 40.0715 48.4592 40.0715C48.6415 40.0715 48.6155 41.0603 48.4071 41.8279C48.1335 42.8687 47.4561 44.1047 47.1565 44.1047C46.8569 44.1047 46.7006 44.3128 46.922 44.4039C47.1826 44.495 46.8439 44.9634 46.5703 44.9113C46.2707 44.8593 45.8669 45.2366 45.932 45.5098C45.9581 45.6399 45.8148 45.8611 45.5933 46.0302L45.2025 46.3294L45.5803 45.6269Z" fill="white"/>
</svg>
