<svg width="24" height="27" viewBox="0 0 24 27" fill="none" xmlns="http://www.w3.org/2000/svg">
<path d="M11.737 0C14.8498 0 17.8352 1.23657 20.0363 3.43769C22.2374 5.6388 23.474 8.62415 23.474 11.737C23.474 15.7458 21.2883 19.027 18.9852 21.3809C17.8346 22.5442 16.5791 23.5989 15.2346 24.5316L14.6791 24.9098L14.4182 25.0833L13.9266 25.3962L13.4884 25.6636L12.9459 25.9792C12.5777 26.1894 12.161 26.2999 11.737 26.2999C11.313 26.2999 10.8963 26.1894 10.5281 25.9792L9.98557 25.6636L9.30743 25.2463L9.05704 25.0833L8.52236 24.7272C7.07197 23.7459 5.721 22.6251 4.48875 21.3809C2.18569 19.0257 0 15.7458 0 11.737C0 8.62415 1.23657 5.6388 3.43769 3.43769C5.6388 1.23657 8.62415 0 11.737 0ZM11.737 7.82466C11.2232 7.82466 10.7145 7.92586 10.2398 8.12247C9.76514 8.31908 9.33385 8.60726 8.97056 8.97056C8.60726 9.33385 8.31908 9.76514 8.12247 10.2398C7.92586 10.7145 7.82466 11.2232 7.82466 11.737C7.82466 12.2508 7.92586 12.7595 8.12247 13.2342C8.31908 13.7088 8.60726 14.1401 8.97056 14.5034C9.33385 14.8667 9.76514 15.1549 10.2398 15.3515C10.7145 15.5481 11.2232 15.6493 11.737 15.6493C12.7746 15.6493 13.7697 15.2371 14.5034 14.5034C15.2371 13.7697 15.6493 12.7746 15.6493 11.737C15.6493 10.6994 15.2371 9.70426 14.5034 8.97056C13.7697 8.23685 12.7746 7.82466 11.737 7.82466Z" fill="#0189E0"/>
</svg>
