<svg width="268" height="41" viewBox="0 0 268 41" fill="none" xmlns="http://www.w3.org/2000/svg">
<path d="M117.613 21.9538C116.337 21.7133 115.02 21.1589 114.204 20.5105C113.597 20.0293 112.854 19.1821 112.854 18.973C112.854 18.8161 114.413 16.8184 114.643 16.6719C114.706 16.6301 115.02 16.8916 115.365 17.2786C116.055 18.0421 117.07 18.7429 117.77 18.9416C118.032 19.0148 118.733 19.0775 119.339 19.0775C120.605 19.088 121.232 18.8788 121.63 18.3245C121.964 17.8538 122.111 16.9962 121.964 16.4628C121.703 15.511 121.054 15.124 118.942 14.6429C116.4 14.0676 115.438 13.6597 114.538 12.7602C112.959 11.1809 112.875 8.09541 114.361 6.40102C114.842 5.84668 115.814 5.26097 116.766 4.94719C117.53 4.69617 117.76 4.6648 119.235 4.6648C120.73 4.65434 120.929 4.67526 121.797 4.94719C122.32 5.11454 123 5.38648 123.314 5.55383C124.067 5.95128 124.82 6.64158 124.715 6.81939C124.234 7.60383 123.157 8.9949 123.031 8.9949C122.948 8.9949 122.686 8.82755 122.446 8.62883C121.515 7.82347 120.333 7.47832 118.869 7.55153C117.844 7.61429 117.101 7.92806 116.745 8.47194C116.536 8.77526 116.505 8.9426 116.536 9.44464C116.588 10.114 116.798 10.4696 117.352 10.8566C117.739 11.1181 117.927 11.1704 119.705 11.5679C123.063 12.3 124.109 12.8857 124.883 14.486C125.416 15.5633 125.531 16.7765 125.249 18.1467C125.029 19.1508 124.642 19.8829 123.941 20.5418C122.812 21.6191 121.441 22.0793 119.402 22.0584C118.701 22.048 117.906 22.0061 117.613 21.9538Z" fill="#5E5E5E"/>
<path d="M243.5 21.9538C239.861 21.2426 237.821 18.7429 237.424 14.4964C237.214 12.3628 237.56 10.2082 238.375 8.50332C238.982 7.21684 240.122 6.06633 241.398 5.45969C242.611 4.88444 243.333 4.70663 244.745 4.63342C245.801 4.58112 246.084 4.6125 247.067 4.85306C249.033 5.32372 250.152 6.05587 250.958 7.37372C251.554 8.34643 251.564 8.55561 251.041 8.84847C250.832 8.96352 250.288 9.28775 249.849 9.55969C249.41 9.84209 249.002 10.0304 248.95 9.99898C248.887 9.9676 248.699 9.6852 248.531 9.38189C247.81 8.10587 246.795 7.58291 245.059 7.59337C243.825 7.60383 243.051 7.86531 242.318 8.55561C241.304 9.5074 240.886 10.6684 240.802 12.8439C240.666 16.1385 241.607 18.2408 243.49 18.8893C244.735 19.3181 246.649 19.1194 247.496 18.4709C248.071 18.0316 248.667 17.1635 248.876 16.4628C248.97 16.149 249.065 15.898 249.096 15.898C249.138 15.898 249.724 16.1908 250.414 16.5464L251.669 17.1949L251.596 17.561C251.491 18.1885 250.738 19.5796 250.226 20.113C249.274 21.0962 248.5 21.5355 247.14 21.8597C246.199 22.0793 244.389 22.1316 243.5 21.9538Z" fill="#5E5E5E"/>
<path d="M52.4004 13.3878V4.91582H54.2726H56.1448L57.5463 7.24822C58.3203 8.52424 59.7637 10.9089 60.7573 12.551C61.7509 14.1931 62.619 15.5947 62.7027 15.6783C62.9851 15.9712 63.0897 15.6992 63.0583 14.6533C63.0478 14.099 63.0374 11.6829 63.0478 9.2773L63.0688 4.90536L64.6167 4.93674L66.1542 4.96812L66.1856 13.1786C66.1961 17.6969 66.1856 21.4936 66.1542 21.6296C66.1019 21.8597 66.0705 21.8597 64.4807 21.8597C63.3198 21.8597 62.8387 21.8179 62.755 21.7342C62.6922 21.661 61.1233 19.0566 59.2616 15.9503C57.3371 12.7288 55.7996 10.2918 55.7055 10.2709C55.5486 10.2395 55.5381 10.7416 55.5381 16.0444V21.8597H53.9693H52.4004V13.3878Z" fill="#5E5E5E"/>
<path d="M68.9993 21.7969C68.9679 21.7656 69.0202 21.5145 69.1248 21.2426C69.2294 20.9811 70.5054 17.1949 71.9592 12.8334L74.6159 4.91582L76.7391 4.93674L78.8518 4.96811L81.6444 13.2309C83.1715 17.7806 84.4266 21.5668 84.437 21.6505C84.4579 21.7865 84.1965 21.8074 82.7636 21.8388L81.0692 21.8597L80.4625 19.9561L79.8455 18.0421H76.6763H73.5072L72.911 19.9247L72.3253 21.8074L70.6937 21.8388C69.8046 21.8492 69.0411 21.8388 68.9993 21.7969ZM78.8414 15.0089C78.8623 14.988 78.4125 13.5237 77.8477 11.7457C77.1574 9.58061 76.7704 8.52424 76.6763 8.52424C76.4985 8.52424 74.4276 14.9671 74.5636 15.0612C74.6577 15.1135 78.7786 15.0717 78.8414 15.0089Z" fill="#5E5E5E"/>
<path d="M88.7983 14.7997V7.7398H86.3927H83.9871V6.32781V4.91582H90.3672H96.7473L96.7577 5.85714C96.7577 6.3801 96.7682 6.9972 96.7682 7.24822L96.7786 7.6875L94.4149 7.71888L92.0406 7.7398V14.7997V21.8597H90.4195H88.7983V14.7997Z" fill="#5E5E5E"/>
<path d="M99.7492 21.7865C99.7074 21.7551 99.676 17.9375 99.676 13.3145V4.91582L105.178 4.93674L110.669 4.96811V6.17092C110.669 6.82985 110.669 7.4574 110.669 7.56199C110.658 7.72934 110.407 7.7398 106.841 7.7398H103.023L103.044 9.69566L103.075 11.662L106.213 11.6829C107.939 11.6934 109.434 11.7038 109.539 11.7038C109.696 11.7143 109.717 11.8503 109.717 13.074V14.4337H106.37H103.023V16.7347V19.0357H106.945H110.878L110.846 20.4268L110.815 21.8074L105.314 21.8388C102.291 21.8492 99.7806 21.8283 99.7492 21.7865Z" fill="#5E5E5E"/>
<path d="M134.505 13.3878V4.91582H138.197C141.042 4.91582 142.025 4.95765 142.517 5.07271C144.389 5.51199 145.581 6.55791 146.178 8.29413C146.565 9.38189 146.565 11.0344 146.188 12.1117C145.696 13.5133 144.996 14.35 143.793 14.9566C142.914 15.3855 142.329 15.4796 139.933 15.5633L137.8 15.6365L137.789 18.7219L137.768 21.8074L136.137 21.8388L134.505 21.8702V13.3878ZM141.942 12.5719C142.81 12.1431 143.259 11.1599 143.165 9.90485C143.071 8.78572 142.548 8.05357 141.68 7.79209C141.314 7.67704 140.655 7.63521 139.452 7.63521H137.747V10.1768C137.747 11.5783 137.779 12.7602 137.831 12.802C137.873 12.8439 138.71 12.8648 139.682 12.8439C141.283 12.8125 141.513 12.7916 141.942 12.5719Z" fill="#5E5E5E"/>
<path d="M149.985 13.3878V4.91582H151.606H153.227L153.248 8.08495L153.279 11.2436L156.919 11.275L160.548 11.2959V8.10587V4.91582H162.222H163.895V13.2204C163.895 17.7911 163.864 21.5982 163.833 21.6923C163.78 21.8388 163.529 21.8597 162.159 21.8597H160.548V17.9898V14.1199H156.888H153.227V17.9898V21.8597H151.606H149.985V13.3878Z" fill="#5E5E5E"/>
<path d="M166.594 21.8074C166.563 21.776 167.734 18.1781 169.198 13.827C170.673 9.47602 171.939 5.6898 172.022 5.41786L172.179 4.91582H174.292H176.405L177.168 7.19592C181.059 18.7533 181.99 21.5564 181.99 21.6923C181.99 21.8388 181.76 21.8597 180.327 21.8597C178.685 21.8597 178.653 21.8597 178.58 21.6296C178.528 21.4936 178.256 20.636 177.963 19.7156L177.43 18.0421H174.25H171.07L170.485 19.9247L169.899 21.8074L168.278 21.8388C167.389 21.8492 166.625 21.8388 166.594 21.8074ZM176.436 14.988C176.436 14.9357 175.976 13.4714 175.411 11.7143C174.7 9.48648 174.344 8.52424 174.24 8.52424C174.083 8.52424 173.957 8.87985 173.256 11.139C173.037 11.8293 172.681 12.9589 172.461 13.6597C172.231 14.35 172.054 14.9566 172.054 14.988C172.054 15.0298 173.047 15.0612 174.25 15.0612C175.463 15.0612 176.446 15.0298 176.436 14.988Z" fill="#5E5E5E"/>
<path d="M184.814 13.3878V4.90536L188.924 4.93674C192.867 4.97858 193.056 4.98904 193.704 5.21914C195.106 5.70026 196.12 6.72526 196.434 7.96991C196.643 8.79618 196.622 10.1768 196.371 10.9822C196.204 11.5469 196.068 11.7666 195.534 12.3C195.126 12.7184 194.677 13.0426 194.258 13.2309C193.892 13.3982 193.599 13.576 193.599 13.6179C193.599 13.6597 193.777 13.8166 193.997 13.9526C194.541 14.2977 194.938 14.7788 195.273 15.5319C195.524 16.0653 197.365 21.6087 197.365 21.7969C197.365 21.8283 196.612 21.8597 195.702 21.8597H194.039L193.871 21.3681C193.788 21.0857 193.401 19.8829 193.014 18.6697C192.083 15.7306 191.926 15.4378 191.142 15.0299C190.786 14.852 190.514 14.8207 189.416 14.8102L188.108 14.7998L188.087 18.3036L188.067 21.8074L186.435 21.8388L184.814 21.8702V13.3878ZM192.334 11.8712C192.533 11.7561 192.836 11.4842 193.014 11.2645C193.296 10.9089 193.338 10.7625 193.369 10.0931C193.432 8.95307 193.139 8.26276 192.418 7.86531C192.146 7.71888 191.706 7.67705 190.148 7.63521C188.987 7.60383 188.182 7.62475 188.14 7.67705C188.046 7.82348 188.035 11.9653 188.129 12.0699C188.171 12.1117 189.06 12.1327 190.096 12.1117C191.748 12.0804 192.02 12.0594 192.334 11.8712Z" fill="#5E5E5E"/>
<path d="M200.576 21.7969C200.481 21.7028 200.481 5.31327 200.565 5.08316C200.617 4.93674 200.91 4.91582 202.751 4.91582H204.874L206.349 9.34005C207.165 11.7666 208.096 14.5696 208.42 15.5633C208.755 16.5464 209.068 17.3622 209.131 17.3622C209.194 17.3622 210.177 14.5592 211.317 11.139L213.378 4.91582H215.47H217.551V13.3878V21.8702L216.013 21.8388L214.465 21.8074L214.434 16.2327C214.413 11.9339 214.382 10.6579 214.288 10.6893C214.214 10.7207 213.89 11.5365 213.555 12.5092C213.231 13.4819 212.374 15.9816 211.673 18.0735L210.386 21.8597H209.068C207.615 21.8597 207.615 21.8597 207.405 21.1798C207.238 20.636 204.676 13.0217 204.195 11.6306C203.985 11.0344 203.776 10.5952 203.734 10.637C203.682 10.6893 203.63 13.2204 203.619 16.264L203.588 21.8074L202.113 21.8388C201.308 21.8492 200.617 21.8283 200.576 21.7969Z" fill="#5E5E5E"/>
<path d="M220.375 21.7446C220.375 21.6819 221.609 17.9793 223.105 13.5133C224.611 9.04719 225.866 5.28189 225.887 5.14592L225.939 4.91582L228.094 4.93674L230.248 4.96811L230.635 6.17092C230.855 6.82985 232.11 10.6161 233.439 14.5696C234.767 18.5232 235.855 21.7865 235.855 21.8074C235.855 21.8388 235.081 21.8597 234.139 21.8597H232.434L231.901 20.2176C231.608 19.3077 231.336 18.4395 231.305 18.2827L231.232 17.9898H228.052C225.594 17.9898 224.862 18.0212 224.831 18.1258C224.81 18.1885 224.601 18.8684 224.37 19.611C224.14 20.364 223.889 21.1694 223.827 21.4204L223.711 21.8597H222.048C220.929 21.8597 220.375 21.8179 220.375 21.7446ZM229.265 11.8816C228.701 10.1349 228.219 8.64975 228.178 8.58699C227.968 8.2523 227.947 8.29413 226.776 12.0281C226.305 13.4923 225.897 14.7788 225.866 14.8834C225.793 15.0508 225.939 15.0612 228.031 15.0612H230.28L229.265 11.8816Z" fill="#5E5E5E"/>
<path d="M258.342 18.5128V15.1763L257.359 13.4191C254.744 8.72296 252.872 5.31327 252.83 5.125C252.778 4.92628 252.83 4.91582 254.482 4.91582L256.198 4.92628L256.668 5.77347C257.129 6.61021 258.478 9.01582 259.472 10.7416C259.743 11.2227 260.015 11.5992 260.068 11.5783C260.214 11.526 260.402 11.2122 261.814 8.62883C262.505 7.36327 263.247 6.02449 263.456 5.64796L263.843 4.96811L265.601 4.93674L267.368 4.91582L267.19 5.16684C267.044 5.4074 266.688 6.03495 264.774 9.51786C264.471 10.0617 264.105 10.7207 263.969 10.9821C263.456 11.8921 261.961 14.5906 261.773 14.9566C261.605 15.2809 261.584 15.626 261.584 18.586V21.8597H259.963H258.342V18.5128Z" fill="#5E5E5E"/>
<path d="M0 24.349C0 8.49287 0 8.17909 0.209184 7.21685C0.554337 5.61659 1.03546 4.83215 2.65663 3.15868C3.5875 2.19644 4.40332 1.60027 5.60612 1.01455C6.65204 0.502051 7.02857 0.387 8.58699 0.156898C9.70612 -0.0104489 9.95714 1.03451e-05 12.1327 0.324245C12.9903 0.460214 15.1763 1.1819 15.7724 1.52705C16.4105 1.90358 17.5923 3.04363 18.3559 4.0268C18.952 4.80078 21.3054 8.15817 29.0033 19.1926C30.6036 21.4936 32.0365 23.4913 32.1829 23.6378L32.4444 23.8992L32.4025 23.6168C32.3398 23.2717 32.4339 23.2299 32.5804 23.5332C32.6431 23.6482 33.4276 24.8092 34.3375 26.1061C36.1574 28.6791 36.6594 29.589 37.0883 31.0115C37.3602 31.8901 37.3811 32.0888 37.3811 33.8878C37.3811 36.2515 37.3288 36.4398 36.4503 37.151C34.3061 38.8663 32.9674 39.5671 30.9801 39.9959C29.5995 40.2888 29.1811 40.3306 29.1811 40.1633C29.1811 40.1005 29.5367 39.6717 29.976 39.201C31.1579 37.9355 31.1997 37.81 31.2102 35.3521C31.2207 33.438 31.2102 33.2811 30.9801 32.7896C30.75 32.2771 27.1939 26.9219 25.2798 24.2026C24.7464 23.4495 23.9411 22.299 23.4809 21.6401C22.686 20.5105 21.389 18.5441 17.7806 13.0008C16.8916 11.6306 15.5946 9.63292 14.8834 8.55562L13.5969 6.59975L12.9066 6.26506C12.3 5.96174 12.0699 5.90945 11.2541 5.87807C10.1349 5.82578 9.18316 5.96174 8.34643 6.26506C7.1227 6.73572 6.78801 7.13317 6.59974 8.36736C6.53699 8.76481 6.47424 14.7056 6.4324 22.7487L6.36964 36.4503L6.01403 37.1824C5.0727 39.1278 3.22143 40.3202 0.972704 40.4457L0 40.5084L0 24.349Z" fill="#244A71"/>
<path d="M22.6964 40.8536C22.6964 40.7699 22.5396 40.6862 22.299 40.6548C21.8074 40.5712 20.9602 40.0378 20.2804 39.3788C19.9875 39.0964 19.1822 38.061 18.4814 37.0883C17.7911 36.1051 16.7452 34.6408 16.1595 33.8355C15.5737 33.0301 14.6324 31.7122 14.0676 30.9069C13.4924 30.1015 12.3941 28.5431 11.5992 27.4449C10.6684 26.127 10.0513 25.1648 9.82119 24.6209C9.48649 23.826 9.47604 23.7528 9.46558 22.3827C9.46558 21.1589 9.49695 20.887 9.70614 20.3431C10.2186 19.0148 11.3273 17.8329 12.5301 17.3622C13.2727 17.0694 14.5592 16.9753 15.3646 17.1531C16.0967 17.3204 17.174 17.8538 17.7492 18.3454C17.9794 18.5546 19.224 20.1967 20.5105 21.9852C21.7865 23.7842 23.1776 25.7296 23.5855 26.3048C27.5809 31.8901 28.3235 32.9883 28.5431 33.6786C28.7837 34.4526 28.8778 35.5821 28.7628 36.4398C28.4908 38.5316 26.8487 40.4666 25.123 40.749C24.8824 40.7804 24.7151 40.8536 24.7464 40.9059C24.7778 40.9582 24.3281 41 23.7528 41C22.9265 41 22.6964 40.9686 22.6964 40.8536ZM19.6319 32.3607C21.6401 31.8378 23.0939 30.0283 23.4809 27.5599C23.5436 27.2043 23.4809 27.2776 23.0416 28.1143C22.414 29.338 21.797 30.1015 20.9184 30.7605C19.7679 31.6286 17.8538 32.2143 16.1804 32.2143C15.2077 32.2143 15.375 32.3816 16.4732 32.5176C17.4878 32.6431 18.8161 32.5699 19.6319 32.3607Z" fill="#69B1E0"/>
<path d="M36.607 36.649C36.7848 36.3248 36.9208 36.0005 36.9208 35.9168C36.9208 35.8332 36.9836 35.7704 37.0672 35.7704C37.1614 35.7704 37.2346 35.6449 37.2555 35.488C37.2869 35.2265 37.3287 35.1952 37.7366 35.1638C37.9772 35.1429 38.1759 35.1638 38.1759 35.1952C38.1759 35.4253 37.1091 36.6594 36.5861 37.036L36.3037 37.2452L36.607 36.649Z" fill="#69B1E0"/>
<path d="M38.6988 32.8C38.6988 32.664 38.657 32.5281 38.5942 32.5071C38.5314 32.4862 38.4791 26.7023 38.4687 16.2431C38.4373 0.0209126 38.4373 0.010454 38.6465 0.18826C38.7615 0.282393 38.9184 0.428821 38.9916 0.512495C39.0858 0.638005 39.1172 4.00586 39.1172 16.6196C39.1172 25.3949 39.0858 32.6849 39.0544 32.8209C38.9707 33.1347 38.6988 33.1242 38.6988 32.8Z" fill="#69B1E0"/>
<path d="M32.4024 24.1084C32.1933 23.826 32.1619 23.7005 32.3292 23.7946C32.4024 23.8469 32.4234 23.7214 32.392 23.439C32.3606 23.0834 32.3815 23.0102 32.5384 23.0102C32.6744 23.0102 32.7371 23.1252 32.7894 23.4704C32.8627 23.9201 32.7894 24.3699 32.6535 24.3699C32.6116 24.3699 32.4966 24.2548 32.4024 24.1084Z" fill="#69B1E0"/>
<path d="M32.4233 21.3367C32.4233 20.7824 32.4443 20.7092 32.6325 20.7092C32.8208 20.7092 32.8417 20.7824 32.8417 21.3367C32.8417 21.8911 32.8208 21.9643 32.6325 21.9643C32.4443 21.9643 32.4233 21.8911 32.4233 21.3367Z" fill="#69B1E0"/>
<path d="M32.4233 18.2513C32.4233 16.0758 32.4338 16.0025 32.6325 16.0025C32.8312 16.0025 32.8417 16.0758 32.8417 18.2513C32.8417 20.4268 32.8312 20.5 32.6325 20.5C32.4338 20.5 32.4233 20.4268 32.4233 18.2513Z" fill="#69B1E0"/>
<path d="M32.5281 5.52245C32.5281 4.62296 32.6013 4.28827 32.8 4.28827C32.9151 4.28827 32.9464 4.50791 32.9464 5.28189C32.9464 6.2023 32.936 6.27551 32.7373 6.27551C32.549 6.27551 32.5281 6.2023 32.5281 5.52245Z" fill="#69B1E0"/>
<path d="M36.5024 0.397449C36.5024 0.219643 36.9836 0 37.3601 0C37.7262 0 37.7785 0.366071 37.4228 0.460204C37.0045 0.564796 36.5024 0.533418 36.5024 0.397449Z" fill="#69B1E0"/>
<path d="M196.915 35.0696C196.873 35.0382 196.842 34.9023 196.842 34.7663C196.842 34.5885 196.915 34.5153 197.156 34.463C197.459 34.4002 197.605 34.0969 197.333 34.0969C197.072 34.0969 196.821 33.7099 196.894 33.4484C196.988 33.1556 197.135 33.051 197.438 33.051C198.118 33.051 198.191 34.2224 197.553 34.9127C197.333 35.1428 197.051 35.216 196.915 35.0696Z" fill="#E81E2F"/>
<path d="M61.2384 33.9714C61.207 33.8982 61.1966 32.7686 61.207 31.4821L61.2384 29.1288H61.8137H62.3889L63.1106 30.9487C63.7486 32.5489 63.8532 32.7477 63.9474 32.5385C63.9997 32.413 64.3343 31.5867 64.6795 30.7186L65.3175 29.1288L65.9241 29.0974L66.5203 29.066L66.4994 31.5553L66.468 34.0446H66.1019H65.7359L65.6836 32.3711L65.6313 30.6977L65.4116 31.1683C65.2966 31.4298 65.0142 32.1306 64.7945 32.7372C64.5749 33.3438 64.3448 33.8982 64.282 33.9714C64.1565 34.1492 63.4767 34.0864 63.3826 33.8877C63.3303 33.8041 63.0688 33.1242 62.7759 32.3711C62.4935 31.6181 62.2216 30.9173 62.1693 30.8023C62.1065 30.6663 62.0542 31.1997 62.0229 32.3188L61.9706 34.0446L61.6254 34.076C61.4162 34.0969 61.2698 34.0551 61.2384 33.9714Z" fill="#E81E2F"/>
<path d="M71.9068 33.8982C71.4361 33.689 70.955 33.1765 70.7354 32.664C70.5366 32.162 70.568 30.8964 70.7981 30.3839C71.1747 29.5367 72.0323 29.0451 73.1096 29.0556C73.894 29.0556 74.2392 29.1706 74.804 29.6099C75.4002 30.091 75.6512 30.6558 75.6616 31.5344C75.6721 32.7372 75.055 33.6785 74.0614 33.9819C73.4548 34.1597 72.3879 34.1178 71.9068 33.8982ZM73.8731 33.1137C75.0655 32.6222 74.9713 30.4885 73.7372 29.9969C73.0155 29.7041 72.0114 30.0387 71.6872 30.6663C71.4466 31.116 71.4675 32.1201 71.7185 32.549C72.0846 33.187 73.0782 33.4484 73.8731 33.1137Z" fill="#E81E2F"/>
<path d="M79.7511 33.9714C79.7197 33.8982 79.7093 32.7686 79.7197 31.4821L79.7511 29.1288L80.7447 29.0974C82.1044 29.0556 82.5751 29.1393 82.9725 29.4949C83.2759 29.7668 83.3072 29.84 83.3072 30.4362C83.3072 31.0114 83.2759 31.1056 83.0248 31.3252C82.868 31.4612 82.6797 31.5867 82.6065 31.6076C82.5123 31.639 82.5646 31.7331 82.7529 31.9109C82.9307 32.0678 83.1504 32.4548 83.3177 32.9464C83.6838 34.0342 83.6838 34.0342 83.234 34.076C82.7843 34.1178 82.6065 33.9191 82.4182 33.1347C82.2195 32.3711 81.9266 32.1097 81.2259 32.1097H80.6506L80.6192 33.0824L80.5879 34.0446L80.1904 34.076C79.9394 34.0969 79.7825 34.0655 79.7511 33.9714ZM82.2509 31.0428C82.4601 30.7395 82.4601 30.2898 82.2509 30.0806C82.1358 29.9551 81.8848 29.9132 81.3618 29.9132H80.6401V30.5931V31.2729H81.3618C81.9998 31.2729 82.1149 31.2415 82.2509 31.0428Z" fill="#E81E2F"/>
<path d="M87.4911 33.9714C87.4702 33.8982 87.4597 32.7791 87.4702 31.4821L87.4911 29.1288H89.2169H90.9426L90.974 29.5158L91.0054 29.9028L89.7189 29.9342L88.4324 29.9655V30.4885V31.0115L89.6666 31.0428L90.9008 31.0742L90.8694 31.4612L90.838 31.8482L89.6666 31.8796C88.3383 31.911 88.3278 31.9214 88.401 32.8L88.4324 33.2079L89.7712 33.2393L91.0995 33.2707V33.6786V34.0969H89.3214C87.9827 34.0969 87.5225 34.0655 87.4911 33.9714Z" fill="#E81E2F"/>
<path d="M100.879 33.9714C100.847 33.8982 100.816 32.9673 100.805 31.9005L100.774 29.9655L100.011 29.9342C99.1843 29.9028 99.0797 29.8191 99.1948 29.338L99.2575 29.0765L101.276 29.0974L103.284 29.1288L103.316 29.5158L103.347 29.9132H102.563H101.768L101.747 31.9842L101.715 34.0446L101.318 34.076C101.067 34.0969 100.91 34.0655 100.879 33.9714Z" fill="#E81E2F"/>
<path d="M107.227 31.6181L107.259 29.1288L107.562 29.0974C107.73 29.0765 107.907 29.1079 107.96 29.1602C108.022 29.2229 108.075 29.6413 108.085 30.0911L108.096 30.9069L109.424 30.9382L110.752 30.9696L110.784 30.0492L110.815 29.1288L111.139 29.0974C111.704 29.0451 111.725 29.1393 111.683 31.7122L111.652 34.0446H111.233H110.815L110.763 32.9464L110.71 31.8482H109.403H108.096L108.085 32.9464L108.064 34.0446L107.635 34.076L107.207 34.1074L107.227 31.6181Z" fill="#E81E2F"/>
<path d="M115.888 31.5867V29.0765H117.561C119.36 29.0765 119.465 29.1079 119.36 29.6622C119.318 29.9132 119.297 29.9132 118.084 29.9132C116.704 29.9132 116.672 29.9342 116.798 30.7081L116.86 31.0638H118.042H119.235V31.4821V31.9005H118.042H116.85L116.808 32.5071C116.787 32.8314 116.777 33.1347 116.798 33.187C116.829 33.2288 117.425 33.2602 118.126 33.2602C119.276 33.2602 119.423 33.2811 119.465 33.4484C119.496 33.553 119.475 33.7413 119.433 33.8668C119.35 34.0865 119.308 34.0969 117.613 34.0969H115.888V31.5867Z" fill="#E81E2F"/>
<path d="M123.47 33.9923C123.418 33.9087 123.397 31.524 123.418 29.202C123.418 29.1079 123.575 29.0765 123.962 29.0974L124.516 29.1288L125.667 30.7814L126.817 32.4339L126.87 30.7814L126.922 29.1288H127.34H127.759L127.79 31.6181L127.811 34.0969H127.424C126.932 34.0969 126.849 34.0446 126.483 33.5112C126.326 33.2811 125.792 32.5176 125.311 31.8168C124.83 31.1161 124.391 30.5408 124.339 30.5408C124.286 30.5408 124.244 31.1161 124.255 31.8796C124.286 34.2643 124.307 34.0969 123.899 34.0969C123.701 34.0969 123.502 34.0446 123.47 33.9923Z" fill="#E81E2F"/>
<path d="M136.754 34.0028C136.691 33.94 136.66 32.9882 136.681 31.4926L136.712 29.0765H137.203C137.475 29.0765 137.747 29.1183 137.821 29.1602C137.894 29.202 138.239 29.9969 138.595 30.9069C138.94 31.8273 139.264 32.6222 139.306 32.664C139.358 32.7058 139.64 32.0992 139.933 31.3043C140.801 29.0242 140.728 29.1288 141.408 29.1288H141.983V31.5867C141.983 33.8773 141.973 34.0446 141.795 34.076C141.69 34.0969 141.481 34.0865 141.345 34.0551L141.084 33.9819L141.115 32.4234C141.136 31.5553 141.115 30.8546 141.084 30.8546C141.042 30.8546 140.728 31.5763 140.383 32.4548L139.756 34.0446L139.379 34.076C138.95 34.1178 138.95 34.1178 138.249 32.3189C137.988 31.6599 137.737 31.0219 137.685 30.9069C137.622 30.7709 137.57 31.2729 137.538 32.3712L137.486 34.0446L137.172 34.076C136.994 34.0969 136.806 34.0551 136.754 34.0028Z" fill="#E81E2F"/>
<path d="M146.292 34.0342C146.251 33.9923 146.219 32.8627 146.219 31.5135V29.0765L147.976 29.0974L149.723 29.1288L149.754 29.5158L149.786 29.9028L148.499 29.9342L147.213 29.9655L147.181 30.5199L147.15 31.0638H148.353C149.012 31.0638 149.577 31.1056 149.608 31.1579C149.639 31.2102 149.639 31.3984 149.608 31.5763L149.545 31.9005H148.342H147.15L147.181 32.5594L147.213 33.2079L148.552 33.2393L149.89 33.2706L149.859 33.6576L149.828 34.0446L148.091 34.076C147.14 34.0865 146.334 34.0655 146.292 34.0342Z" fill="#E81E2F"/>
<path d="M153.687 33.961C153.666 33.8877 153.656 32.7686 153.666 31.4821L153.698 29.1288H155.11C156.344 29.1393 156.574 29.1602 156.94 29.3589C157.892 29.8714 158.185 30.3735 158.195 31.5344C158.195 32.9569 157.609 33.7622 156.375 33.9923C155.549 34.1492 153.76 34.1283 153.687 33.961ZM156.616 33.0196C157.013 32.7477 157.243 32.2457 157.243 31.5867C157.254 30.4258 156.637 29.8923 155.371 29.9342L154.639 29.9655L154.608 31.4821C154.597 32.3084 154.608 33.051 154.639 33.1347C154.723 33.3543 156.25 33.2602 156.616 33.0196Z" fill="#E81E2F"/>
<path d="M162.274 33.9714C162.243 33.8982 162.232 32.7686 162.243 31.4821L162.274 29.1288H162.692H163.111V31.5867V34.0446L162.713 34.076C162.462 34.0969 162.305 34.0655 162.274 33.9714Z" fill="#E81E2F"/>
<path d="M168.539 33.94C168.058 33.7204 167.389 32.915 167.253 32.3712C166.793 30.5513 167.912 29.0242 169.711 29.0451C170.474 29.0451 170.945 29.2439 171.384 29.725L171.771 30.1538L171.426 30.4676L171.081 30.7709L170.736 30.4048C170.547 30.1956 170.265 29.9969 170.098 29.9655C169.941 29.9237 169.742 29.8714 169.669 29.8505C169.397 29.7668 168.612 30.2061 168.403 30.5513C168.089 31.0638 168.016 31.7227 168.225 32.2561C168.476 32.9255 168.811 33.187 169.47 33.2393C170.181 33.2916 170.652 33.0719 170.861 32.5803C171.049 32.1097 171.123 32.0888 171.51 32.3189L171.844 32.528L171.687 32.915C171.489 33.4066 170.903 33.9505 170.464 34.0342C169.93 34.1388 168.884 34.0865 168.539 33.94Z" fill="#E81E2F"/>
<path d="M175.662 33.8668C175.631 33.7309 175.62 32.6117 175.631 31.3775L175.662 29.1288H176.08H176.499V31.5867V34.0446L176.112 34.076C175.777 34.1074 175.714 34.076 175.662 33.8668Z" fill="#E81E2F"/>
<path d="M180.787 33.9714C180.756 33.8982 180.745 32.7686 180.756 31.4821L180.787 29.1288L181.258 29.0974C181.519 29.087 181.781 29.1079 181.843 29.1497C181.906 29.202 182.345 29.7982 182.827 30.4885C183.308 31.1788 183.82 31.9109 183.967 32.1097L184.239 32.4757L184.291 30.8023L184.343 29.1288H184.762H185.18V31.5867V34.0446L184.741 34.076C184.197 34.1178 184.249 34.1701 182.44 31.4612C182.105 30.9592 181.802 30.5512 181.76 30.5408C181.718 30.5408 181.666 31.3252 181.655 32.2979L181.624 34.0446L181.226 34.076C180.975 34.0969 180.818 34.0655 180.787 33.9714Z" fill="#E81E2F"/>
<path d="M189.489 34.0342C189.447 33.9923 189.416 32.8627 189.416 31.5135V29.0765H191.079C192.878 29.0765 192.993 29.1079 192.899 29.6308L192.846 29.9132H191.612C190.242 29.9132 190.263 29.9028 190.336 30.6245L190.378 31.0638H191.56C192.7 31.0638 192.742 31.0742 192.784 31.3043C192.888 31.8796 192.846 31.9005 191.549 31.9005H190.357V32.5803V33.2602H191.675H192.982L192.951 33.6576L192.92 34.0446L191.236 34.076C190.315 34.0865 189.531 34.0655 189.489 34.0342Z" fill="#E81E2F"/>
<path d="M207.51 34.0342C207.311 33.9819 206.109 29.2857 206.245 29.1497C206.381 29.0138 207.008 29.1079 207.102 29.2857C207.144 29.3694 207.353 30.1852 207.562 31.0951C207.772 32.0051 207.981 32.7268 208.012 32.6849C208.054 32.6431 208.138 32.3921 208.211 32.1306C208.556 30.7081 208.943 29.3275 209.006 29.202C209.058 29.1393 209.246 29.0765 209.435 29.0765C209.633 29.0765 209.832 29.1393 209.884 29.202C209.947 29.2752 210.188 30.1329 210.439 31.0951C210.69 32.0678 210.93 32.7895 210.962 32.7163C211.003 32.6431 211.192 31.8482 211.38 30.9592C211.568 30.0701 211.767 29.2857 211.809 29.2229C211.903 29.1079 212.572 29.087 212.687 29.1916C212.719 29.2229 212.604 29.7877 212.447 30.4467C212.28 31.1056 212.039 32.0888 211.913 32.6326C211.558 34.1283 211.579 34.0969 210.962 34.0969C210.345 34.0969 210.397 34.2015 209.916 32.3189C209.727 31.5972 209.539 30.9487 209.497 30.8755C209.456 30.7918 209.278 31.2625 209.089 31.9737C208.451 34.2643 208.556 34.0446 208.085 34.0655C207.855 34.0655 207.594 34.0551 207.51 34.0342Z" fill="#E81E2F"/>
<path d="M216.662 34.0342C216.578 34.0028 216.547 31.7436 216.61 29.2648C216.61 29.0974 216.766 29.0765 218.325 29.0765C220.187 29.0765 220.239 29.0974 220.103 29.6622C220.04 29.9132 220.019 29.9132 218.796 29.9132H217.551V30.4885V31.0638H218.754H219.956V31.4821V31.9005H218.754H217.551V32.5908V33.2706L218.816 33.2497C219.538 33.2393 220.124 33.2811 220.187 33.3439C220.239 33.3961 220.27 33.574 220.249 33.7413L220.218 34.0446L218.492 34.0655C217.54 34.076 216.725 34.0655 216.662 34.0342Z" fill="#E81E2F"/>
<path d="M229.945 33.9087C228.816 33.3648 228.334 32.0469 228.742 30.6036C229.004 29.6518 230.332 28.8569 231.388 29.0242C232.026 29.1288 232.633 29.4426 232.895 29.8191C233.156 30.2061 233.125 30.3316 232.717 30.5722C232.413 30.75 232.413 30.75 232.236 30.4885C231.692 29.6518 230.343 29.7041 229.799 30.5722C229.495 31.0638 229.495 32.1201 229.788 32.6117C230.06 33.0615 230.625 33.302 231.273 33.2393C231.838 33.1765 232.11 32.9883 232.309 32.4967C232.382 32.3084 232.455 32.1515 232.466 32.1306C232.518 32.0574 233.114 32.4235 233.167 32.5699C233.261 32.8 232.916 33.3648 232.476 33.7204C232.131 33.9923 231.995 34.0342 231.221 34.0655C230.541 34.0969 230.28 34.0655 229.945 33.9087Z" fill="#E81E2F"/>
<path d="M236.618 33.8668C236.67 33.6158 238.292 29.6204 238.48 29.2752C238.563 29.1183 238.699 29.0765 239.139 29.0765C239.683 29.0765 239.693 29.087 239.85 29.474C241.126 32.5908 241.607 33.825 241.607 33.9505C241.607 34.1388 240.844 34.1492 240.697 33.9714C240.634 33.8982 240.53 33.6576 240.457 33.438L240.331 33.0405L239.118 33.0719L237.905 33.1033L237.727 33.574C237.559 34.0342 237.538 34.0446 237.057 34.076C236.587 34.1074 236.566 34.0969 236.618 33.8668ZM239.934 32.141C239.934 31.9946 239.17 30.1224 239.107 30.1224C239.076 30.1224 238.877 30.5513 238.678 31.0742C238.48 31.6076 238.302 32.0783 238.281 32.1201C238.26 32.1724 238.626 32.2143 239.086 32.2143C239.557 32.2143 239.934 32.1829 239.934 32.141Z" fill="#E81E2F"/>
<path d="M245.487 33.9609C245.404 33.8459 245.372 33.1556 245.393 31.4717L245.425 29.1288L246.627 29.0974C248.489 29.0556 249.033 29.3589 249.033 30.4676C249.033 30.9696 248.761 31.4194 248.395 31.5344C248.186 31.6076 248.186 31.6181 248.458 31.9005C248.709 32.162 249.347 33.6472 249.347 33.9714C249.347 34.0655 249.211 34.0969 248.908 34.076C248.416 34.0446 248.29 33.8773 248.092 33.0824C247.924 32.4234 247.684 32.1933 247.056 32.1097C246.711 32.0678 246.481 32.0783 246.418 32.162C246.366 32.2247 246.314 32.6745 246.293 33.1556L246.261 34.0446L245.937 34.076C245.749 34.0969 245.561 34.0446 245.487 33.9609ZM247.935 31.0638C248.175 30.7918 248.165 30.227 247.914 30.0388C247.788 29.9551 247.485 29.9132 247.046 29.9342L246.366 29.9655L246.335 30.478C246.282 31.2416 246.314 31.2729 247.077 31.2729C247.611 31.2729 247.788 31.2311 247.935 31.0638Z" fill="#E81E2F"/>
<path d="M253.374 34.0028C253.311 33.94 253.279 32.915 253.3 31.4821L253.332 29.0765L255.078 29.0974L256.825 29.1288V29.4949V29.8609L255.549 29.8923C254.137 29.9237 254.158 29.9028 254.252 30.7291L254.284 31.0638H255.476H256.668V31.4821V31.9005H255.465H254.263V32.5803V33.2602H255.56C256.961 33.2602 257.055 33.302 256.919 33.8459L256.857 34.0969H255.162C254.231 34.0969 253.426 34.0551 253.374 34.0028Z" fill="#E81E2F"/>
<path d="M36.5965 36.6804C37.4751 35.0173 37.245 31.8796 36.084 29.5681C35.8644 29.1288 34.9649 27.7378 34.0863 26.4827C32.4547 24.1607 32.4338 24.1189 32.4128 23.1148C32.4128 22.9161 32.4338 19.339 32.4651 15.1658C32.5174 7.05995 32.5802 4.77985 32.758 3.8699C32.9253 3.00179 33.3437 2.20689 34.0131 1.5375C34.9335 0.606636 36.0631 0.16735 37.883 0.0313805C38.3955 -0.0104562 38.4896 0.0104622 38.6151 0.198727C38.6884 0.324238 38.8034 0.41837 38.8766 0.41837C38.9498 0.41837 39.0126 0.470666 39.0126 0.522962C39.0126 0.585717 38.9708 0.627554 38.908 0.627554C38.8348 0.627554 38.8034 5.96174 38.8034 16.4209C38.8034 26.8801 38.8348 32.2143 38.908 32.2143C39.0544 32.2143 39.0335 33.0092 38.8662 33.6263C38.6465 34.463 38.1026 35.4566 37.8621 35.4566C37.6215 35.4566 37.496 35.624 37.6738 35.6972C37.883 35.7704 37.6111 36.1469 37.3914 36.1051C37.1509 36.0633 36.8266 36.3666 36.8789 36.5862C36.8998 36.6908 36.7848 36.8686 36.607 37.0046L36.2932 37.2452L36.5965 36.6804Z" fill="#4FA2DB"/>
</svg>
