<svg width="21" height="19" viewBox="0 0 21 19" fill="none" xmlns="http://www.w3.org/2000/svg">
<path d="M10.2778 15.8238L10.1761 15.9255L10.0641 15.8238C5.23049 11.4379 2.03521 8.53771 2.03521 5.59683C2.03521 3.56162 3.56162 2.03521 5.59683 2.03521C7.16394 2.03521 8.69035 3.05282 9.22968 4.43676H11.1224C11.6618 3.05282 13.1882 2.03521 14.7553 2.03521C16.7905 2.03521 18.3169 3.56162 18.3169 5.59683C18.3169 8.53771 15.1216 11.4379 10.2778 15.8238ZM14.7553 0C12.9846 0 11.2852 0.82426 10.1761 2.11662C9.06686 0.82426 7.36746 0 5.59683 0C2.46261 0 0 2.45243 0 5.59683C0 9.4332 3.45986 12.5776 8.70053 17.3298L10.1761 18.6731L11.6516 17.3298C16.8923 12.5776 20.3521 9.4332 20.3521 5.59683C20.3521 2.45243 17.8895 0 14.7553 0Z" fill="white"/>
</svg>
