<svg width="29" height="29" viewBox="0 0 29 29" fill="none" xmlns="http://www.w3.org/2000/svg">
<path d="M4.61237 0C3.3891 0 2.21592 0.485945 1.35093 1.35093C0.485945 2.21592 0 3.3891 0 4.61237V22.0369C0 23.2602 0.485945 24.4333 1.35093 25.2983C2.21592 26.1633 3.3891 26.6493 4.61237 26.6493H15.8512L15.6124 26.4115C15.2274 26.0265 14.975 25.5289 14.8918 24.9909C14.354 25.1072 13.793 25.0474 13.2918 24.8201C12.7906 24.5929 12.3759 24.2104 12.109 23.7291C11.5615 22.7407 11.2744 21.6293 11.2747 20.4994H7.1748C6.90297 20.4994 6.64226 20.3915 6.45004 20.1992C6.25782 20.007 6.14983 19.7463 6.14983 19.4745C6.14983 19.2026 6.25782 18.9419 6.45004 18.7497C6.64226 18.5575 6.90297 18.4495 7.1748 18.4495H11.5955C11.8926 17.5347 12.3837 16.6948 13.0352 15.9873C13.6867 15.2797 14.4833 14.7211 15.3705 14.3496H7.1748C6.90297 14.3496 6.64226 14.2416 6.45004 14.0494C6.25782 13.8572 6.14983 13.5965 6.14983 13.3246C6.14983 13.0528 6.25782 12.7921 6.45004 12.5999C6.64226 12.4077 6.90297 12.2997 7.1748 12.2997H18.962C19.0337 12.204 19.113 12.1124 19.1998 12.025C19.4377 11.787 19.7202 11.5981 20.0312 11.4693C20.3421 11.3405 20.6754 11.2742 21.0119 11.2742C21.3485 11.2742 21.6818 11.3405 21.9927 11.4693C22.3036 11.5981 22.5861 11.787 22.8241 12.025L25.3865 14.5874C25.7862 14.9871 26.0271 15.4884 26.1071 16.008C26.2875 15.9691 26.4682 15.9499 26.6493 15.9506V4.61237C26.6493 3.3891 26.1633 2.21592 25.2983 1.35093C24.4334 0.485945 23.2602 0 22.0369 0H4.61237ZM7.1748 6.14983H19.4745C19.7463 6.14983 20.007 6.25782 20.1992 6.45004C20.3915 6.64226 20.4994 6.90296 20.4994 7.1748C20.4994 7.44664 20.3915 7.70735 20.1992 7.89957C20.007 8.09179 19.7463 8.19978 19.4745 8.19978H7.1748C6.90297 8.19978 6.64226 8.09179 6.45004 7.89957C6.25782 7.70735 6.14983 7.44664 6.14983 7.1748C6.14983 6.90296 6.25782 6.64226 6.45004 6.45004C6.64226 6.25782 6.90297 6.14983 7.1748 6.14983ZM21.7366 13.1125C21.5433 12.9258 21.2844 12.8224 21.0156 12.8248C20.7469 12.8271 20.4898 12.9349 20.2998 13.125C20.1097 13.315 20.0019 13.5721 19.9996 13.8408C19.9973 14.1096 20.1006 14.3685 20.2873 14.5618L21.1001 15.3746H17.937C17.0451 15.3745 16.1686 15.6073 15.3941 16.0498C14.6197 16.4923 13.9742 17.1293 13.5213 17.8977C13.0685 18.6662 12.8241 19.5395 12.8123 20.4314C12.8004 21.3232 13.0215 22.2027 13.4538 22.9829C13.59 23.212 13.8101 23.379 14.0674 23.4485C14.3247 23.518 14.599 23.4845 14.832 23.3552C15.0651 23.2259 15.2386 23.0109 15.3158 22.7558C15.3929 22.5007 15.3677 22.2255 15.2454 21.9887C14.9862 21.5205 14.8537 20.9927 14.861 20.4576C14.8683 19.9225 15.0151 19.3985 15.287 18.9375C15.5588 18.4765 15.9463 18.0944 16.4111 17.8291C16.8758 17.5637 17.4018 17.4243 17.937 17.4245H21.1001L20.2873 18.2373C20.1006 18.4306 19.9973 18.6895 19.9996 18.9583C20.0019 19.227 20.1097 19.4841 20.2998 19.6742C20.4898 19.8642 20.7469 19.972 21.0156 19.9743C21.2844 19.9767 21.5433 19.8733 21.7366 19.6866L24.299 17.1242C24.4912 16.932 24.5991 16.6713 24.5991 16.3996C24.5991 16.1278 24.4912 15.8671 24.299 15.6749L21.7366 13.1125ZM27.5451 18.0159C27.4089 17.7869 27.1887 17.6199 26.9314 17.5504C26.6741 17.4809 26.3999 17.5144 26.1669 17.6437C25.9338 17.773 25.7603 17.988 25.6831 18.2431C25.606 18.4982 25.6312 18.7733 25.7534 19.0102C26.0127 19.4784 26.1452 20.0062 26.1379 20.5413C26.1306 21.0764 25.9838 21.6004 25.7119 22.0614C25.4401 22.5224 25.0526 22.9045 24.5878 23.1698C24.123 23.4351 23.5971 23.5746 23.0619 23.5744H19.8988L20.7116 22.7616C20.8983 22.5682 21.0016 22.3093 20.9993 22.0406C20.997 21.7718 20.8892 21.5148 20.6991 21.3247C20.5091 21.1347 20.252 21.0269 19.9833 21.0246C19.7145 21.0222 19.4556 21.1255 19.2623 21.3122L16.6999 23.8747C16.5077 24.0669 16.3998 24.3275 16.3998 24.5993C16.3998 24.8711 16.5077 25.1318 16.6999 25.324L19.2623 27.8864C19.4556 28.0731 19.7145 28.1764 19.9833 28.1741C20.252 28.1718 20.5091 28.064 20.6991 27.8739C20.8892 27.6839 20.997 27.4268 20.9993 27.1581C21.0016 26.8893 20.8983 26.6304 20.7116 26.4371L19.8988 25.6243H23.0619C23.9538 25.6244 24.8303 25.3916 25.6048 24.9491C26.3792 24.5066 27.0247 23.8696 27.4775 23.1012C27.9303 22.3327 28.1748 21.4594 28.1866 20.5675C28.1985 19.6757 27.9773 18.7961 27.5451 18.0159Z" fill="#154D71"/>
</svg>
