<svg width="38" height="30" viewBox="0 0 38 30" fill="none" xmlns="http://www.w3.org/2000/svg">
<path d="M25.8125 21.455V4.8125C25.8125 3.88424 25.4438 2.994 24.7874 2.33763C24.131 1.68125 23.2408 1.3125 22.3125 1.3125H4.8125C3.88424 1.3125 2.994 1.68125 2.33763 2.33763C1.68125 2.994 1.3125 3.88424 1.3125 4.8125V20.5625C1.3125 21.0266 1.49687 21.4717 1.82506 21.7999C2.15325 22.1281 2.59837 22.3125 3.0625 22.3125H4.305C4.64613 21.5336 5.20684 20.871 5.91857 20.4057C6.63029 19.9404 7.46218 19.6927 8.3125 19.6927C9.16282 19.6927 9.99471 19.9404 10.7064 20.4057C11.4182 20.871 11.9789 21.5336 12.32 22.3125H25.305C25.4333 22.0033 25.6025 21.7175 25.8125 21.455ZM25.8125 21.455C26.2673 20.8381 26.8767 20.3521 27.5794 20.046C28.282 19.7398 29.0529 19.6244 29.8144 19.7114C30.5758 19.7984 31.3009 20.0846 31.9164 20.5413C32.5319 20.998 33.016 21.6089 33.32 22.3125H36.3125V17.255C36.3132 15.9851 35.9683 14.7389 35.315 13.65L33.1625 10.0625L31.57 7.42C31.4151 7.15876 31.1949 6.94233 30.931 6.79199C30.6672 6.64164 30.3687 6.56255 30.065 6.5625H25.8125V21.455Z" stroke="#154d71" stroke-width="2.625" stroke-linecap="round" stroke-linejoin="round"/>
<path d="M17.0625 13.5625H8.3125M17.0625 8.3125H8.3125M12.6875 24.0625C12.6883 24.7133 12.5438 25.3561 12.2647 25.9441C11.9855 26.532 11.5787 27.0502 11.0739 27.461C10.5691 27.8718 9.97903 28.1648 9.34664 28.3187C8.71426 28.4725 8.05551 28.4833 7.41842 28.3503C6.78132 28.2173 6.18192 27.9438 5.66391 27.5498C5.14589 27.1558 4.72231 26.6512 4.42403 26.0728C4.12575 25.4943 3.96028 24.8566 3.93969 24.2061C3.9191 23.5556 4.0439 22.9087 4.305 22.3125C4.70785 21.3927 5.41488 20.6394 6.3074 20.1792C7.19992 19.719 8.22359 19.5798 9.20659 19.785C10.1896 19.9902 11.0721 20.5273 11.7059 21.3062C12.3397 22.0851 12.6863 23.0583 12.6875 24.0625ZM33.6875 24.0625C33.6883 24.7133 33.5438 25.3561 33.2647 25.9441C32.9855 26.532 32.5787 27.0502 32.0739 27.461C31.5691 27.8718 30.979 28.1648 30.3466 28.3187C29.7143 28.4725 29.0555 28.4833 28.4184 28.3503C27.7813 28.2173 27.1819 27.9438 26.6639 27.5498C26.1459 27.1558 25.7223 26.6512 25.424 26.0728C25.1257 25.4943 24.9603 24.8566 24.9397 24.2061C24.9191 23.5556 25.0439 22.9087 25.305 22.3125C25.4333 22.0033 25.6025 21.7175 25.8125 21.455C26.2673 20.8381 26.8767 20.3521 27.5794 20.046C28.282 19.7398 29.0529 19.6244 29.8144 19.7114C30.5758 19.7984 31.3009 20.0846 31.9164 20.5413C32.5319 20.998 33.016 21.6089 33.32 22.3125C33.565 22.8638 33.691 23.4605 33.6875 24.0625Z" stroke="#154d71" stroke-width="2.625" stroke-linecap="round" stroke-linejoin="round"/>
</svg>
