<svg width="40" height="32" viewBox="0 0 40 32" fill="none" xmlns="http://www.w3.org/2000/svg">
<path d="M38.1005 13.5209L34.1845 7.02544C33.8979 6.55377 33.495 6.16351 33.0145 5.89196C32.534 5.62041 31.9919 5.47666 31.44 5.47444H28.3655V5.01794C28.3655 4.3587 28.2353 3.70593 27.9824 3.09714C27.7294 2.48836 27.3587 1.93554 26.8915 1.47044C25.947 0.529309 24.6681 0.000633985 23.3348 0.000109689H5.03264C4.03652 -0.00648383 3.06109 0.284317 2.23119 0.835294C1.4013 1.38627 0.754695 2.17236 0.374139 3.09294C0.122347 3.70325 -0.00481473 4.35776 0.000139377 5.01794V21.4409C0.00117194 22.2123 0.28163 22.9571 0.78959 23.5375C1.29755 24.1179 1.99861 24.4947 2.76297 24.5979C2.75442 24.7629 2.75442 24.9273 2.76297 25.0911C2.75645 25.8687 2.90704 26.6396 3.20569 27.3575C3.50434 28.0755 3.94491 28.7257 4.50097 29.2693C5.04663 29.8372 5.69978 30.291 6.42243 30.6041C7.14507 30.9173 7.92278 31.0836 8.71031 31.0934C10.2821 31.0792 11.7858 30.4501 12.8995 29.3408C14.0121 28.2333 14.6443 26.7324 14.6595 25.1626C14.6689 25.0112 14.6689 24.8594 14.6595 24.7079H24.7593C24.7499 24.8594 24.7499 25.0112 24.7593 25.1626C24.7525 25.9405 24.903 26.7117 25.2017 27.43C25.5003 28.1483 25.941 28.7988 26.4973 29.3426C27.0434 29.911 27.6971 30.365 28.4204 30.6782C29.1438 30.9913 29.9222 31.1574 30.7103 31.1668C32.2821 31.1525 33.7858 30.5234 34.8995 29.4141C36.0114 28.3063 36.643 26.8055 36.6576 25.2359C36.6671 25.0839 36.6671 24.9315 36.6576 24.7794H38.0436C38.4053 24.7743 38.7507 24.6287 39.007 24.3735C39.2632 24.1182 39.4102 23.7734 39.4168 23.4118V18.1391C39.4168 16.5074 38.9603 14.9088 38.1005 13.5209ZM11.8948 25.0893C11.8953 25.5084 11.8114 25.9233 11.6479 26.3091C11.4844 26.695 11.2448 27.044 10.9433 27.3351C10.3334 27.9147 9.52417 28.2378 8.68281 28.2378C7.84145 28.2378 7.03223 27.9147 6.42231 27.3351C6.12501 27.0385 5.8896 26.6857 5.72972 26.2974C5.56985 25.909 5.48869 25.4928 5.49097 25.0728C5.48236 24.6391 5.57002 24.209 5.74764 23.8133C5.98964 23.2394 6.40581 22.7554 6.93564 22.4254C7.47755 22.0673 8.11589 21.8831 8.76531 21.8974C9.38497 21.8974 9.98997 22.0808 10.5033 22.4254C11.0295 22.7609 11.4438 23.2431 11.695 23.8133C11.8746 24.2074 11.97 24.6383 11.9681 25.0728L11.8948 25.0893ZM17.8421 15.9666H8.69381C8.20948 15.9661 7.74502 15.774 7.40186 15.4322C7.0587 15.0905 6.86473 14.6268 6.86231 14.1424C6.86182 13.9022 6.90884 13.6642 7.00066 13.4422C7.09249 13.2202 7.2273 13.0186 7.39735 12.8489C7.56739 12.6792 7.76931 12.5448 7.9915 12.4534C8.21368 12.362 8.45174 12.3155 8.69197 12.3164H17.8421C18.3265 12.3174 18.7907 12.51 19.1335 12.8521C19.4764 13.1942 19.6699 13.6581 19.6718 14.1424C19.6721 14.3825 19.6249 14.6203 19.5329 14.8421C19.441 15.0639 19.3061 15.2653 19.1361 15.4348C18.9661 15.6043 18.7643 15.7386 18.5422 15.8298C18.3201 15.9211 18.0822 15.9676 17.8421 15.9666ZM17.8421 9.68928H8.69381C8.20948 9.6888 7.74502 9.49669 7.40186 9.1549C7.0587 8.81312 6.86473 8.34943 6.86231 7.86511C6.86206 7.62502 6.90926 7.38726 7.00119 7.16547C7.09312 6.94368 7.22797 6.74225 7.398 6.57274C7.56802 6.40323 7.76986 6.26899 7.99192 6.17772C8.21398 6.08646 8.45189 6.03998 8.69197 6.04094H17.8421C18.3262 6.04191 18.7901 6.23423 19.1329 6.57596C19.4757 6.91769 19.6694 7.3811 19.6718 7.86511C19.6721 8.10519 19.6249 8.34296 19.5329 8.56475C19.441 8.78654 19.3061 8.98797 19.1361 9.15748C18.9661 9.32699 18.7643 9.46123 18.5422 9.5525C18.3201 9.64376 18.0822 9.69024 17.8421 9.68928ZM33.8545 25.0893C33.8548 25.5085 33.7705 25.9235 33.6067 26.3094C33.4429 26.6952 33.2029 27.0441 32.9011 27.3351C32.2913 27.9141 31.4825 28.2369 30.6416 28.2369C29.8006 28.2369 28.9918 27.9141 28.382 27.3351C28.0844 27.0386 27.8486 26.6859 27.6884 26.2976C27.5282 25.9092 27.4468 25.4929 27.4488 25.0728C27.441 24.408 27.6538 23.7594 28.0538 23.2284C28.5048 22.6289 29.152 22.2018 29.8835 22.0239H30.3418C30.4256 22.004 30.5129 22.004 30.5966 22.0239H30.9633C31.5188 22.0881 32.0486 22.2953 32.4996 22.6271C32.9525 22.9589 33.3063 23.4063 33.5245 23.9233C33.706 24.3174 33.7995 24.7483 33.7995 25.1809L33.8545 25.0893Z" fill="#154D71"/>
</svg>
