<svg width="35" height="35" viewBox="0 0 35 35" fill="none" xmlns="http://www.w3.org/2000/svg">
<path d="M1.64755 21.4775C1.12521 20.9552 0.710871 20.3351 0.428184 19.6527C0.145497 18.9702 0 18.2387 0 17.5C0 16.7614 0.145497 16.0299 0.428184 15.3474C0.710871 14.665 1.12521 14.0449 1.64755 13.5225L13.5225 1.64755C14.0449 1.12521 14.665 0.710871 15.3474 0.428184C16.0299 0.145497 16.7614 0 17.5 0C18.2387 0 18.9702 0.145497 19.6527 0.428184C20.3351 0.710871 20.9552 1.12521 21.4775 1.64755L33.3525 13.5225C33.8749 14.0449 34.2892 14.665 34.5719 15.3474C34.8546 16.0299 35.0001 16.7614 35.0001 17.5C35.0001 18.2387 34.8546 18.9702 34.5719 19.6527C34.2892 20.3351 33.8749 20.9552 33.3525 21.4775L21.4775 33.3525C20.9552 33.8749 20.3351 34.2892 19.6527 34.5719C18.9702 34.8546 18.2387 35.0001 17.5 35.0001C16.7614 35.0001 16.0299 34.8546 15.3474 34.5719C14.665 34.2892 14.0449 33.8749 13.5225 33.3525L1.64755 21.4775ZM20.885 9.11505C20.7689 8.99891 20.631 8.90679 20.4793 8.84393C20.3276 8.78108 20.1649 8.74873 20.0007 8.74873C19.8364 8.74873 19.6738 8.78108 19.5221 8.84393C19.3703 8.90679 19.2324 8.99891 19.1163 9.11505C19.0002 9.23119 18.908 9.36906 18.8452 9.5208C18.7823 9.67255 18.75 9.83518 18.75 9.99942C18.75 10.1637 18.7823 10.3263 18.8452 10.478C18.908 10.6298 19.0002 10.7677 19.1163 10.8838L20.7325 12.5H17.5C16.174 12.5 14.9022 13.0268 13.9645 13.9645C13.0268 14.9022 12.5 16.174 12.5 17.5V23.75C12.5 24.0816 12.6317 24.3995 12.8662 24.6339C13.1006 24.8684 13.4185 25 13.75 25C14.0816 25 14.3995 24.8684 14.6339 24.6339C14.8684 24.3995 15 24.0816 15 23.75V17.5C15 16.837 15.2634 16.2011 15.7323 15.7323C16.2011 15.2634 16.837 15 17.5 15H20.7325L19.1163 16.6163C18.8886 16.8521 18.7626 17.1678 18.7655 17.4956C18.7683 17.8233 18.8998 18.1368 19.1315 18.3686C19.3633 18.6003 19.6768 18.7318 20.0045 18.7346C20.3323 18.7375 20.648 18.6115 20.8838 18.3838L24.6338 14.6338C24.8681 14.3994 24.9998 14.0815 24.9998 13.75C24.9998 13.4186 24.8681 13.1007 24.6338 12.8663L20.885 9.11505Z" fill="#154D71"/>
</svg>
