<svg width="38" height="38" viewBox="0 0 38 38" fill="none" xmlns="http://www.w3.org/2000/svg">
<path d="M6.07995 0C4.46745 0 2.92099 0.640564 1.78078 1.78078C0.640564 2.92099 0 4.46745 0 6.07995V29.0486C0 30.6611 0.640564 32.2076 1.78078 33.3478C2.92099 34.488 4.46745 35.1286 6.07995 35.1286H20.8948L20.5799 34.8151C20.0724 34.3077 19.7397 33.6518 19.6301 32.9425C18.9212 33.0959 18.1816 33.017 17.521 32.7175C16.8603 32.4179 16.3137 31.9137 15.9619 31.2793C15.2402 29.9764 14.8618 28.5114 14.8621 27.022H9.4577C9.09936 27.022 8.75571 26.8796 8.50233 26.6263C8.24895 26.3729 8.1066 26.0292 8.1066 25.6709C8.1066 25.3126 8.24895 24.9689 8.50233 24.7155C8.75571 24.4621 9.09936 24.3198 9.4577 24.3198H15.285C15.6766 23.1139 16.324 22.0068 17.1828 21.0741C18.0416 20.1414 19.0916 19.4051 20.2611 18.9154H9.4577C9.09936 18.9154 8.75571 18.773 8.50233 18.5197C8.24895 18.2663 8.1066 17.9226 8.1066 17.5643C8.1066 17.206 8.24895 16.8623 8.50233 16.6089C8.75571 16.3555 9.09936 16.2132 9.4577 16.2132H24.9953C25.0899 16.0871 25.1944 15.9664 25.3088 15.8511C25.6225 15.5374 25.9949 15.2885 26.4047 15.1187C26.8146 14.9489 27.2539 14.8615 27.6975 14.8615C28.1412 14.8615 28.5805 14.9489 28.9904 15.1187C29.4002 15.2885 29.7726 15.5374 30.0863 15.8511L33.464 19.2288C33.991 19.7558 34.3085 20.4165 34.4139 21.1015C34.6516 21.0501 34.8899 21.0249 35.1286 21.0258V6.07995C35.1286 4.46745 34.488 2.92099 33.3478 1.78078C32.2076 0.640564 30.6611 0 29.0486 0H6.07995ZM9.4577 8.1066H25.6709C26.0292 8.1066 26.3729 8.24895 26.6263 8.50233C26.8796 8.75571 27.022 9.09936 27.022 9.4577C27.022 9.81603 26.8796 10.1597 26.6263 10.4131C26.3729 10.6664 26.0292 10.8088 25.6709 10.8088H9.4577C9.09936 10.8088 8.75571 10.6664 8.50233 10.4131C8.24895 10.1597 8.1066 9.81603 8.1066 9.4577C8.1066 9.09936 8.24895 8.75571 8.50233 8.50233C8.75571 8.24895 9.09936 8.1066 9.4577 8.1066ZM28.6528 17.2846C28.3979 17.0385 28.0567 16.9023 27.7024 16.9054C27.3481 16.9085 27.0093 17.0506 26.7588 17.3011C26.5083 17.5516 26.3662 17.8905 26.3631 18.2447C26.36 18.599 26.4962 18.9403 26.7423 19.1951L27.8137 20.2665H23.6442C22.4685 20.2664 21.3131 20.5732 20.2923 21.1565C19.2714 21.7398 18.4205 22.5795 17.8236 23.5924C17.2267 24.6054 16.9045 25.7566 16.8889 26.9322C16.8733 28.1079 17.1648 29.2672 17.7345 30.2957C17.9141 30.5976 18.2043 30.8178 18.5434 30.9094C18.8826 31.001 19.2441 30.9569 19.5513 30.7864C19.8585 30.6159 20.0872 30.3325 20.1889 29.9962C20.2907 29.66 20.2574 29.2973 20.0963 28.9851C19.7546 28.3679 19.5799 27.6722 19.5895 26.9668C19.5991 26.2614 19.7926 25.5707 20.151 24.963C20.5094 24.3554 21.0201 23.8517 21.6328 23.502C22.2454 23.1522 22.9388 22.9684 23.6442 22.9687H27.8137L26.7423 24.0401C26.4962 24.2949 26.36 24.6362 26.3631 24.9905C26.3662 25.3447 26.5083 25.6836 26.7588 25.9341C27.0093 26.1846 27.3481 26.3267 27.7024 26.3298C28.0567 26.3329 28.3979 26.1967 28.6528 25.9506L32.0305 22.5728C32.2838 22.3195 32.4261 21.9759 32.4261 21.6176C32.4261 21.2593 32.2838 20.9157 32.0305 20.6624L28.6528 17.2846ZM36.3094 23.7483C36.1298 23.4463 35.8397 23.2262 35.5005 23.1346C35.1614 23.043 34.7999 23.0871 34.4927 23.2576C34.1855 23.4281 33.9568 23.7115 33.855 24.0477C33.7533 24.384 33.7865 24.7467 33.9477 25.0588C34.2894 25.6761 34.4641 26.3717 34.4545 27.0772C34.4449 27.7826 34.2513 28.4733 33.893 29.0809C33.5346 29.6886 33.0239 30.1922 32.4112 30.542C31.7986 30.8918 31.1052 31.0756 30.3997 31.0753H26.2302L27.3017 30.0039C27.5478 29.749 27.684 29.4078 27.6809 29.0535C27.6778 28.6992 27.5357 28.3604 27.2852 28.1099C27.0347 27.8594 26.6958 27.7173 26.3416 27.7142C25.9873 27.7111 25.646 27.8473 25.3912 28.0934L22.0135 31.4712C21.7602 31.7245 21.6179 32.0681 21.6179 32.4264C21.6179 32.7847 21.7602 33.1282 22.0135 33.3816L25.3912 36.7594C25.646 37.0055 25.9873 37.1417 26.3416 37.1386C26.6958 37.1355 27.0347 36.9934 27.2852 36.7429C27.5357 36.4924 27.6778 36.1535 27.6809 35.7993C27.684 35.445 27.5478 35.1037 27.3017 34.8489L26.2302 33.7775H30.3997C31.5755 33.7776 32.7309 33.4708 33.7517 32.8875C34.7726 32.3042 35.6235 31.4645 36.2204 30.4515C36.8173 29.4386 37.1395 28.2874 37.1551 27.1117C37.1707 25.9361 36.8792 24.7767 36.3094 23.7483Z" fill="white"/>
</svg>
