<svg width="33" height="37" viewBox="0 0 33 37" fill="none" xmlns="http://www.w3.org/2000/svg">
<path fill-rule="evenodd" clip-rule="evenodd" d="M3.66667 0C2.69421 0 1.76157 0.386308 1.07394 1.07394C0.386308 1.76158 0 2.69421 0 3.66667V34.65C0 34.9148 0.0521628 35.1771 0.15351 35.4217C0.254857 35.6664 0.403403 35.8887 0.590668 36.076C0.777933 36.2633 1.00025 36.4118 1.24492 36.5132C1.4896 36.6145 1.75183 36.6667 2.01667 36.6667H30.9833C31.2482 36.6667 31.5104 36.6145 31.7551 36.5132C31.9998 36.4118 32.2221 36.2633 32.4093 36.076C32.5966 35.8887 32.7451 35.6664 32.8465 35.4217C32.9478 35.1771 33 34.9148 33 34.65V16.5C33 15.5275 32.6137 14.5949 31.9261 13.9073C31.2384 13.2196 30.3058 12.8333 29.3333 12.8333H28.4167C28.1736 12.8333 27.9404 12.9299 27.7685 13.1018C27.5966 13.2737 27.5 13.5069 27.5 13.75V33H25.6667V3.66667C25.6667 2.69421 25.2804 1.76158 24.5927 1.07394C23.9051 0.386308 22.9725 0 22 0H3.66667ZM12.8333 5.5C12.3471 5.5 11.8808 5.69316 11.537 6.03697C11.1932 6.38079 11 6.8471 11 7.33333V9.16667H9.16667C8.68044 9.16667 8.21412 9.35982 7.8703 9.70364C7.52649 10.0475 7.33333 10.5138 7.33333 11C7.33333 11.4862 7.52649 11.9525 7.8703 12.2964C8.21412 12.6402 8.68044 12.8333 9.16667 12.8333H11V14.6667C11 15.1529 11.1932 15.6192 11.537 15.963C11.8808 16.3068 12.3471 16.5 12.8333 16.5C13.3196 16.5 13.7859 16.3068 14.1297 15.963C14.4735 15.6192 14.6667 15.1529 14.6667 14.6667V12.8333H16.5C16.9862 12.8333 17.4525 12.6402 17.7964 12.2964C18.1402 11.9525 18.3333 11.4862 18.3333 11C18.3333 10.5138 18.1402 10.0475 17.7964 9.70364C17.4525 9.35982 16.9862 9.16667 16.5 9.16667H14.6667V7.33333C14.6667 6.8471 14.4735 6.38079 14.1297 6.03697C13.7859 5.69316 13.3196 5.5 12.8333 5.5ZM12.8333 22C11.8609 22 10.9282 22.3863 10.2406 23.0739C9.55298 23.7616 9.16667 24.6942 9.16667 25.6667V33H16.5V25.6667C16.5 24.6942 16.1137 23.7616 15.4261 23.0739C14.7384 22.3863 13.8058 22 12.8333 22Z" fill="#154D71"/>
</svg>
